999
DXF file generated by netDxf https://github.com/haplokuon/netDxf, Copyright(C) Daniel Carvajal, Licensed under MIT
0
SECTION
2
HEADER
9
$ACADVER
1
AC1015
9
$DWGCODEPAGE
3
ANSI_1252
9
$HANDSEED
5
11B
9
$ANGBASE
50
0.0
9
$ANGDIR
70
0
9
$ATTMODE
70
1
9
$AUNITS
70
0
9
$AUPREC
70
0
9
$CECOLOR
62
256
9
$CELTSCALE
40
1.0
9
$CELTYPE
6
ByLayer
9
$CELWEIGHT
370
-1
9
$CLAYER
8
0
9
$CMLJUST
70
0
9
$CMLSCALE
40
20.0
9
$CMLSTYLE
2
Standard
9
$DIMSTYLE
2
Standard
9
$TEXTSIZE
40
2.5
9
$TEXTSTYLE
7
Standard
9
$LUNITS
70
2
9
$LUPREC
70
4
9
$MIRRTEXT
70
0
9
$EXTNAMES
290
1
9
$INSBASE
10
0.0
20
0.0
30
0.0
9
$INSUNITS
70
0
9
$LTSCALE
40
1.0
9
$LWDISPLAY
290
0
9
$PDMODE
70
0
9
$PDSIZE
40
0.0
9
$PLINEGEN
70
0
9
$PSLTSCALE
70
1
9
$SPLINESEGS
70
8
9
$SURFU
70
6
9
$SURFV
70
6
9
$TDCREATE
40
2460902.73107701
9
$TDUCREATE
40
2460902.39774368
9
$TDUPDATE
40
2460902.73107701
9
$TDUUPDATE
40
2460902.39774368
9
$TDINDWG
40
0.0
9
$UCSORG
10
0.0
20
0.0
30
0.0
9
$UCSXDIR
10
1.0
20
0.0
30
0.0
9
$UCSYDIR
10
0.0
20
1.0
30
0.0
9
$DIMADEC
70
0
9
$DIMALT
70
0
9
$DIMALTD
70
2
9
$DIMALTF
40
25.4
9
$DIMALTRND
40
0.0
9
$DIMALTTD
70
2
9
$DIMALTTZ
70
0
9
$DIMALTU
70
2
9
$DIMALTZ
70
0
9
$DIMAPOST
1

9
$DIMATFIT
70
3
9
$DIMAUNIT
70
0
9
$DIMASZ
40
0.18
9
$DIMAZIN
70
0
9
$DIMSAH
70
0
9
$DIMBLK
1

9
$DIMLDRBLK
1

9
$DIMCEN
40
0.09
9
$DIMCLRD
70
0
9
$DIMCLRE
70
0
9
$DIMCLRT
70
0
9
$DIMDEC
70
4
9
$DIMDLE
40
0.0
9
$DIMDLI
40
0.38
9
$DIMDSEP
70
46
9
$DIMEXE
40
0.18
9
$DIMEXO
40
0.0625
9
$DIMFXLON
70
0
9
$DIMFXL
40
1.0
9
$DIMGAP
40
0.09
9
$DIMJUST
70
0
9
$DIMLFAC
40
1.0
9
$DIMLUNIT
70
2
9
$DIMLWD
70
-2
9
$DIMLWE
70
-2
9
$DIMPOST
1

9
$DIMRND
40
0.0
9
$DIMSCALE
40
1.0
9
$DIMSD1
70
0
9
$DIMSD2
70
0
9
$DIMSE1
70
0
9
$DIMSE2
70
0
9
$DIMSOXD
70
0
9
$DIMTAD
70
0
9
$DIMTDEC
70
4
9
$DIMTFAC
40
1.0
9
$DIMTIH
70
0
9
$DIMTIX
70
0
9
$DIMTM
40
0.0
9
$DIMTMOVE
70
0
9
$DIMTOFL
70
0
9
$DIMTOH
70
0
9
$DIMTOL
70
0
9
$DIMLIM
70
0
9
$DIMTOLJ
70
1
9
$DIMTP
40
0.0
9
$DIMTXT
40
0.18
9
$DIMTXTDIRECTION
70
0
9
$DIMTZIN
70
0
9
$DIMZIN
70
0
9
$DIMFRAC
70
0
9
$DIMLTYPE
6
ByBlock
9
$DIMLTEX1
6
ByBlock
9
$DIMLTEX2
6
ByBlock
0
ENDSEC
0
SECTION
2
CLASSES
0
CLASS
1
RASTERVARIABLES
2
AcDbRasterVariables
3
ISM
90
0
280
0
281
0
0
ENDSEC
0
SECTION
2
TABLES
0
TABLE
2
APPID
5
4
330
0
100
AcDbSymbolTable
70
7
0
APPID
5
19
330
4
100
AcDbSymbolTableRecord
100
AcDbRegAppTableRecord
2
ACAD
70
0
0
APPID
5
10D
330
4
100
AcDbSymbolTableRecord
100
AcDbRegAppTableRecord
2
ZWMCAD_GENSCA_13_
70
0
0
APPID
5
10E
330
4
100
AcDbSymbolTableRecord
100
AcDbRegAppTableRecord
2
ZWMCAD_GENSTANDARDFRAME_13_
70
0
0
APPID
5
115
330
4
100
AcDbSymbolTableRecord
100
AcDbRegAppTableRecord
2
AcCmTransparency
70
0
0
APPID
5
116
330
4
100
AcDbSymbolTableRecord
100
AcDbRegAppTableRecord
2
AcAecLayerStandard
70
0
0
APPID
5
117
330
4
100
AcDbSymbolTableRecord
100
AcDbRegAppTableRecord
2
GradientColor1ACI
70
0
0
APPID
5
118
330
4
100
AcDbSymbolTableRecord
100
AcDbRegAppTableRecord
2
GradientColor2ACI
70
0
0
ENDTAB
0
TABLE
2
VPORT
5
1
330
0
100
AcDbSymbolTable
70
1
0
VPORT
5
2
330
1
100
AcDbSymbolTableRecord
100
AcDbViewportTableRecord
2
*Active
70
0
10
0.0
20
0.0
11
1.0
21
1.0
12
0.0
22
0.0
13
0.0
23
0.0
14
0.5
24
0.5
15
10.0
25
10.0
16
0.0
26
0.0
36
1.0
17
0.0
27
0.0
37
0.0
40
10.0
41
1.0
75
0
76
1
0
ENDTAB
0
TABLE
2
LTYPE
5
7
330
0
100
AcDbSymbolTable
70
3
0
LTYPE
5
15
330
7
100
AcDbSymbolTableRecord
100
AcDbLinetypeTableRecord
2
Continuous
70
0
3
Solid line
72
65
73
0
40
0.0
0
LTYPE
5
16
330
7
100
AcDbSymbolTableRecord
100
AcDbLinetypeTableRecord
2
ByLayer
70
0
3

72
65
73
0
40
0.0
0
LTYPE
5
17
330
7
100
AcDbSymbolTableRecord
100
AcDbLinetypeTableRecord
2
ByBlock
70
0
3

72
65
73
0
40
0.0
0
ENDTAB
0
TABLE
2
LAYER
5
5
102
{ACAD_XDICTIONARY
360
6
102
}
330
0
100
AcDbSymbolTable
70
3
0
LAYER
5
14
330
5
100
AcDbSymbolTableRecord
100
AcDbLayerTableRecord
2
0
70
0
62
7
6
Continuous
290
1
370
-3
390
0
0
LAYER
5
23
330
5
100
AcDbSymbolTableRecord
100
AcDbLayerTableRecord
2
spdCmdManufTaoliaoGnDraw
70
0
62
7
6
Continuous
290
1
370
-3
390
0
0
LAYER
5
8A
330
5
100
AcDbSymbolTableRecord
100
AcDbLayerTableRecord
2
markline
70
0
62
7
6
Continuous
290
1
370
-3
390
0
0
ENDTAB
0
TABLE
2
STYLE
5
8
330
0
100
AcDbSymbolTable
70
1
0
STYLE
5
18
330
8
100
AcDbSymbolTableRecord
100
AcDbTextStyleTableRecord
2
Standard
3
simplex.shx
70
0
71
0
40
0.0
41
1.0
42
0.0
50
0.0
0
ENDTAB
0
TABLE
2
DIMSTYLE
5
A
330
0
100
AcDbSymbolTable
70
1
100
AcDbDimStyleTable
0
DIMSTYLE
105
1A
330
A
100
AcDbSymbolTableRecord
100
AcDbDimStyleTableRecord
2
Standard
3

4

40
1.0
41
0.18
42
0.0625
43
0.38
44
0.18
45
0.0
46
0.0
47
0.0
48
0.0
49
1.0
70
0
71
0
72
0
73
0
74
0
75
0
76
0
77
0
78
0
79
0
140
0.18
141
0.09
143
25.4
144
1.0
146
1.0
147
0.09
148
0.0
170
0
171
2
172
0
174
0
175
0
176
0
177
0
178
0
179
0
271
4
272
4
273
2
274
2
275
0
276
0
277
2
278
46
279
0
280
0
281
0
282
0
283
1
284
0
285
0
286
0
289
3
290
0
294
0
340
18
173
0
345
17
346
17
347
17
371
-2
372
-2
0
ENDTAB
0
TABLE
2
VIEW
5
3
330
0
100
AcDbSymbolTable
70
0
0
ENDTAB
0
TABLE
2
UCS
5
C
330
0
100
AcDbSymbolTable
70
0
0
ENDTAB
0
TABLE
2
BLOCK_RECORD
5
D
330
0
100
AcDbSymbolTable
70
2
0
BLOCK_RECORD
5
1C
330
D
100
AcDbSymbolTableRecord
100
AcDbBlockTableRecord
2
*Model_Space
340
20
0
BLOCK_RECORD
5
10F
330
D
100
AcDbSymbolTableRecord
100
AcDbBlockTableRecord
2
*Paper_Space
340
114
0
ENDTAB
0
ENDSEC
0
SECTION
2
BLOCKS
0
BLOCK
5
1E
330
1C
100
AcDbEntity
67
0
8
0
100
AcDbBlockBegin
2
*Model_Space
70
0
10
0.0
20
0.0
30
0.0
3
*Model_Space
4

0
ENDBLK
5
1D
330
1C
100
AcDbEntity
8
0
100
AcDbBlockEnd
0
BLOCK
5
111
330
10F
100
AcDbEntity
67
1
8
0
100
AcDbBlockBegin
2
*Paper_Space
70
0
10
0.0
20
0.0
30
0.0
3
*Paper_Space
4

0
ENDBLK
5
110
330
10F
100
AcDbEntity
8
0
100
AcDbBlockEnd
0
ENDSEC
0
SECTION
2
ENTITIES
0
LWPOLYLINE
5
22
330
1C
100
AcDbEntity
67
0
8
spdCmdManufTaoliaoGnDraw
62
7
6
Continuous
370
-1
48
1.0
60
0
100
AcDbPolyline
90
4
70
129
38
0.0
39
0.0
10
3383.98427851409
20
19.2582145288288
40
0.1
41
0.1
42
0.0
10
3755.98427851409
20
19.2582145288288
40
0.1
41
0.1
42
0.0
10
3755.98427851409
20
279.258214528829
40
0.1
41
0.1
42
0.0
10
3383.98427851409
20
279.258214528829
40
0.1
41
0.1
42
0.0
210
0.0
220
0.0
230
1.0
0
LWPOLYLINE
5
24
330
1C
100
AcDbEntity
67
0
8
spdCmdManufTaoliaoGnDraw
62
7
6
Continuous
370
-1
48
1.0
60
0
100
AcDbPolyline
90
4
70
129
38
0.0
39
0.0
10
3383.98427851409
20
19.2582145288288
40
0.1
41
0.1
42
0.0
10
3755.98427851409
20
19.2582145288288
40
0.1
41
0.1
42
0.0
10
3755.98427851409
20
279.258214528829
40
0.1
41
0.1
42
0.0
10
3383.98427851409
20
279.258214528829
40
0.1
41
0.1
42
0.0
210
0.0
220
0.0
230
1.0
0
LWPOLYLINE
5
25
330
1C
100
AcDbEntity
67
0
8
spdCmdManufTaoliaoGnDraw
62
7
6
Continuous
370
-1
48
1.0
60
0
100
AcDbPolyline
90
4
70
129
38
0.0
39
0.0
10
3383.98427851409
20
19.2582145288288
40
0.1
41
0.1
42
0.0
10
3755.98427851409
20
19.2582145288288
40
0.1
41
0.1
42
0.0
10
3755.98427851409
20
279.258214528829
40
0.1
41
0.1
42
0.0
10
3383.98427851409
20
279.258214528829
40
0.1
41
0.1
42
0.0
210
0.0
220
0.0
230
1.0
0
LWPOLYLINE
5
26
330
1C
100
AcDbEntity
67
0
8
spdCmdManufTaoliaoGnDraw
62
7
6
Continuous
370
-1
48
1.0
60
0
100
AcDbPolyline
90
4
70
129
38
0.0
39
0.0
10
3383.98427851409
20
19.2582145288288
40
0.1
41
0.1
42
0.0
10
3755.98427851409
20
19.2582145288288
40
0.1
41
0.1
42
0.0
10
3755.98427851409
20
279.258214528829
40
0.1
41
0.1
42
0.0
10
3383.98427851409
20
279.258214528829
40
0.1
41
0.1
42
0.0
210
0.0
220
0.0
230
1.0
0
LWPOLYLINE
5
27
330
1C
100
AcDbEntity
67
0
8
spdCmdManufTaoliaoGnDraw
62
7
6
Continuous
370
-1
48
1.0
60
0
100
AcDbPolyline
90
2
70
128
38
0.0
39
0.0
10
3389.98427851409
20
19.2582145288288
40
0.1
41
0.1
42
0.0
10
3389.98427851409
20
33.2582145288288
40
0.1
41
0.1
42
0.0
210
0.0
220
0.0
230
1.0
0
LWPOLYLINE
5
28
330
1C
100
AcDbEntity
67
0
8
spdCmdManufTaoliaoGnDraw
62
7
6
Continuous
370
-1
48
1.0
60
0
100
AcDbPolyline
90
2
70
128
38
0.0
39
0.0
10
3389.98427851409
20
19.2582145288288
40
0.1
41
0.1
42
0.0
10
3389.98427851409
20
33.2582145288288
40
0.1
41
0.1
42
0.0
210
0.0
220
0.0
230
1.0
0
LWPOLYLINE
5
29
330
1C
100
AcDbEntity
67
0
8
spdCmdManufTaoliaoGnDraw
62
7
6
Continuous
370
-1
48
1.0
60
0
100
AcDbPolyline
90
2
70
128
38
0.0
39
0.0
10
3417.98427851409
20
19.2582145288288
40
0.1
41
0.1
42
0.0
10
3417.98427851409
20
33.2582145288288
40
0.1
41
0.1
42
0.0
210
0.0
220
0.0
230
1.0
0
LWPOLYLINE
5
2A
330
1C
100
AcDbEntity
67
0
8
spdCmdManufTaoliaoGnDraw
62
7
6
Continuous
370
-1
48
1.0
60
0
100
AcDbPolyline
90
2
70
128
38
0.0
39
0.0
10
3417.98427851409
20
19.2582145288288
40
0.1
41
0.1
42
0.0
10
3417.98427851409
20
33.2582145288288
40
0.1
41
0.1
42
0.0
210
0.0
220
0.0
230
1.0
0
LWPOLYLINE
5
2B
330
1C
100
AcDbEntity
67
0
8
spdCmdManufTaoliaoGnDraw
62
7
6
Continuous
370
-1
48
1.0
60
0
100
AcDbPolyline
90
2
70
128
38
0.0
39
0.0
10
3435.98427851409
20
19.2582145288288
40
0.1
41
0.1
42
0.0
10
3435.98427851409
20
33.2582145288288
40
0.1
41
0.1
42
0.0
210
0.0
220
0.0
230
1.0
0
LWPOLYLINE
5
2C
330
1C
100
AcDbEntity
67
0
8
spdCmdManufTaoliaoGnDraw
62
7
6
Continuous
370
-1
48
1.0
60
0
100
AcDbPolyline
90
2
70
128
38
0.0
39
0.0
10
3435.98427851409
20
19.2582145288288
40
0.1
41
0.1
42
0.0
10
3435.98427851409
20
33.2582145288288
40
0.1
41
0.1
42
0.0
210
0.0
220
0.0
230
1.0
0
LWPOLYLINE
5
2D
330
1C
100
AcDbEntity
67
0
8
spdCmdManufTaoliaoGnDraw
62
7
6
Continuous
370
-1
48
1.0
60
0
100
AcDbPolyline
90
2
70
128
38
0.0
39
0.0
10
3449.98427851409
20
19.2582145288288
40
0.1
41
0.1
42
0.0
10
3449.98427851409
20
33.2582145288288
40
0.1
41
0.1
42
0.0
210
0.0
220
0.0
230
1.0
0
LWPOLYLINE
5
2E
330
1C
100
AcDbEntity
67
0
8
spdCmdManufTaoliaoGnDraw
62
7
6
Continuous
370
-1
48
1.0
60
0
100
AcDbPolyline
90
2
70
128
38
0.0
39
0.0
10
3449.98427851409
20
19.2582145288288
40
0.1
41
0.1
42
0.0
10
3449.98427851409
20
33.2582145288288
40
0.1
41
0.1
42
0.0
210
0.0
220
0.0
230
1.0
0
LWPOLYLINE
5
2F
330
1C
100
AcDbEntity
67
0
8
spdCmdManufTaoliaoGnDraw
62
7
6
Continuous
370
-1
48
1.0
60
0
100
AcDbPolyline
90
2
70
128
38
0.0
39
0.0
10
3460.98427851409
20
19.2582145288288
40
0.1
41
0.1
42
0.0
10
3460.98427851409
20
33.2582145288288
40
0.1
41
0.1
42
0.0
210
0.0
220
0.0
230
1.0
0
LWPOLYLINE
5
30
330
1C
100
AcDbEntity
67
0
8
spdCmdManufTaoliaoGnDraw
62
7
6
Continuous
370
-1
48
1.0
60
0
100
AcDbPolyline
90
2
70
128
38
0.0
39
0.0
10
3460.98427851409
20
19.2582145288288
40
0.1
41
0.1
42
0.0
10
3460.98427851409
20
33.2582145288288
40
0.1
41
0.1
42
0.0
210
0.0
220
0.0
230
1.0
0
LWPOLYLINE
5
31
330
1C
100
AcDbEntity
67
0
8
spdCmdManufTaoliaoGnDraw
62
7
6
Continuous
370
-1
48
1.0
60
0
100
AcDbPolyline
90
2
70
128
38
0.0
39
0.0
10
3476.98427851409
20
19.2582145288288
40
0.1
41
0.1
42
0.0
10
3476.98427851409
20
33.2582145288288
40
0.1
41
0.1
42
0.0
210
0.0
220
0.0
230
1.0
0
LWPOLYLINE
5
32
330
1C
100
AcDbEntity
67
0
8
spdCmdManufTaoliaoGnDraw
62
7
6
Continuous
370
-1
48
1.0
60
0
100
AcDbPolyline
90
2
70
128
38
0.0
39
0.0
10
3476.98427851409
20
19.2582145288288
40
0.1
41
0.1
42
0.0
10
3476.98427851409
20
33.2582145288288
40
0.1
41
0.1
42
0.0
210
0.0
220
0.0
230
1.0
0
LWPOLYLINE
5
33
330
1C
100
AcDbEntity
67
0
8
spdCmdManufTaoliaoGnDraw
62
7
6
Continuous
370
-1
48
1.0
60
0
100
AcDbPolyline
90
2
70
128
38
0.0
39
0.0
10
3476.73427851409
20
19.2582145288288
40
0.1
41
0.1
42
0.0
10
3476.73427851409
20
33.2582145288288
40
0.1
41
0.1
42
0.0
210
0.0
220
0.0
230
1.0
0
LWPOLYLINE
5
34
330
1C
100
AcDbEntity
67
0
8
spdCmdManufTaoliaoGnDraw
62
7
6
Continuous
370
-1
48
1.0
60
0
100
AcDbPolyline
90
2
70
128
38
0.0
39
0.0
10
3476.73427851409
20
19.2582145288288
40
0.1
41
0.1
42
0.0
10
3476.73427851409
20
33.2582145288288
40
0.1
41
0.1
42
0.0
210
0.0
220
0.0
230
1.0
0
LWPOLYLINE
5
35
330
1C
100
AcDbEntity
67
0
8
spdCmdManufTaoliaoGnDraw
62
7
6
Continuous
370
-1
48
1.0
60
0
100
AcDbPolyline
90
2
70
128
38
0.0
39
0.0
10
3477.23427851409
20
19.2582145288288
40
0.1
41
0.1
42
0.0
10
3477.23427851409
20
33.2582145288288
40
0.1
41
0.1
42
0.0
210
0.0
220
0.0
230
1.0
0
LWPOLYLINE
5
36
330
1C
100
AcDbEntity
67
0
8
spdCmdManufTaoliaoGnDraw
62
7
6
Continuous
370
-1
48
1.0
60
0
100
AcDbPolyline
90
2
70
128
38
0.0
39
0.0
10
3477.23427851409
20
19.2582145288288
40
0.1
41
0.1
42
0.0
10
3477.23427851409
20
33.2582145288288
40
0.1
41
0.1
42
0.0
210
0.0
220
0.0
230
1.0
0
LWPOLYLINE
5
37
330
1C
100
AcDbEntity
67
0
8
spdCmdManufTaoliaoGnDraw
62
7
6
Continuous
370
-1
48
1.0
60
0
100
AcDbPolyline
90
2
70
128
38
0.0
39
0.0
10
3482.98427851409
20
19.2582145288288
40
0.1
41
0.1
42
0.0
10
3482.98427851409
20
33.2582145288288
40
0.1
41
0.1
42
0.0
210
0.0
220
0.0
230
1.0
0
LWPOLYLINE
5
38
330
1C
100
AcDbEntity
67
0
8
spdCmdManufTaoliaoGnDraw
62
7
6
Continuous
370
-1
48
1.0
60
0
100
AcDbPolyline
90
2
70
128
38
0.0
39
0.0
10
3482.98427851409
20
19.2582145288288
40
0.1
41
0.1
42
0.0
10
3482.98427851409
20
33.2582145288288
40
0.1
41
0.1
42
0.0
210
0.0
220
0.0
230
1.0
0
LWPOLYLINE
5
39
330
1C
100
AcDbEntity
67
0
8
spdCmdManufTaoliaoGnDraw
62
7
6
Continuous
370
-1
48
1.0
60
0
100
AcDbPolyline
90
2
70
128
38
0.0
39
0.0
10
3510.98427851409
20
19.2582145288288
40
0.1
41
0.1
42
0.0
10
3510.98427851409
20
33.2582145288288
40
0.1
41
0.1
42
0.0
210
0.0
220
0.0
230
1.0
0
LWPOLYLINE
5
3A
330
1C
100
AcDbEntity
67
0
8
spdCmdManufTaoliaoGnDraw
62
7
6
Continuous
370
-1
48
1.0
60
0
100
AcDbPolyline
90
2
70
128
38
0.0
39
0.0
10
3510.98427851409
20
19.2582145288288
40
0.1
41
0.1
42
0.0
10
3510.98427851409
20
33.2582145288288
40
0.1
41
0.1
42
0.0
210
0.0
220
0.0
230
1.0
0
LWPOLYLINE
5
3B
330
1C
100
AcDbEntity
67
0
8
spdCmdManufTaoliaoGnDraw
62
7
6
Continuous
370
-1
48
1.0
60
0
100
AcDbPolyline
90
2
70
128
38
0.0
39
0.0
10
3528.98427851409
20
19.2582145288288
40
0.1
41
0.1
42
0.0
10
3528.98427851409
20
33.2582145288288
40
0.1
41
0.1
42
0.0
210
0.0
220
0.0
230
1.0
0
LWPOLYLINE
5
3C
330
1C
100
AcDbEntity
67
0
8
spdCmdManufTaoliaoGnDraw
62
7
6
Continuous
370
-1
48
1.0
60
0
100
AcDbPolyline
90
2
70
128
38
0.0
39
0.0
10
3528.98427851409
20
19.2582145288288
40
0.1
41
0.1
42
0.0
10
3528.98427851409
20
33.2582145288288
40
0.1
41
0.1
42
0.0
210
0.0
220
0.0
230
1.0
0
LWPOLYLINE
5
3D
330
1C
100
AcDbEntity
67
0
8
spdCmdManufTaoliaoGnDraw
62
7
6
Continuous
370
-1
48
1.0
60
0
100
AcDbPolyline
90
2
70
128
38
0.0
39
0.0
10
3542.98427851409
20
19.2582145288288
40
0.1
41
0.1
42
0.0
10
3542.98427851409
20
33.2582145288288
40
0.1
41
0.1
42
0.0
210
0.0
220
0.0
230
1.0
0
LWPOLYLINE
5
3E
330
1C
100
AcDbEntity
67
0
8
spdCmdManufTaoliaoGnDraw
62
7
6
Continuous
370
-1
48
1.0
60
0
100
AcDbPolyline
90
2
70
128
38
0.0
39
0.0
10
3542.98427851409
20
19.2582145288288
40
0.1
41
0.1
42
0.0
10
3542.98427851409
20
33.2582145288288
40
0.1
41
0.1
42
0.0
210
0.0
220
0.0
230
1.0
0
LWPOLYLINE
5
3F
330
1C
100
AcDbEntity
67
0
8
spdCmdManufTaoliaoGnDraw
62
7
6
Continuous
370
-1
48
1.0
60
0
100
AcDbPolyline
90
2
70
128
38
0.0
39
0.0
10
3553.98427851409
20
19.2582145288288
40
0.1
41
0.1
42
0.0
10
3553.98427851409
20
33.2582145288288
40
0.1
41
0.1
42
0.0
210
0.0
220
0.0
230
1.0
0
LWPOLYLINE
5
40
330
1C
100
AcDbEntity
67
0
8
spdCmdManufTaoliaoGnDraw
62
7
6
Continuous
370
-1
48
1.0
60
0
100
AcDbPolyline
90
2
70
128
38
0.0
39
0.0
10
3553.98427851409
20
19.2582145288288
40
0.1
41
0.1
42
0.0
10
3553.98427851409
20
33.2582145288288
40
0.1
41
0.1
42
0.0
210
0.0
220
0.0
230
1.0
0
LWPOLYLINE
5
41
330
1C
100
AcDbEntity
67
0
8
spdCmdManufTaoliaoGnDraw
62
7
6
Continuous
370
-1
48
1.0
60
0
100
AcDbPolyline
90
2
70
128
38
0.0
39
0.0
10
3569.98427851409
20
19.2582145288288
40
0.1
41
0.1
42
0.0
10
3569.98427851409
20
33.2582145288288
40
0.1
41
0.1
42
0.0
210
0.0
220
0.0
230
1.0
0
LWPOLYLINE
5
42
330
1C
100
AcDbEntity
67
0
8
spdCmdManufTaoliaoGnDraw
62
7
6
Continuous
370
-1
48
1.0
60
0
100
AcDbPolyline
90
2
70
128
38
0.0
39
0.0
10
3569.98427851409
20
19.2582145288288
40
0.1
41
0.1
42
0.0
10
3569.98427851409
20
33.2582145288288
40
0.1
41
0.1
42
0.0
210
0.0
220
0.0
230
1.0
0
LWPOLYLINE
5
43
330
1C
100
AcDbEntity
67
0
8
spdCmdManufTaoliaoGnDraw
62
7
6
Continuous
370
-1
48
1.0
60
0
100
AcDbPolyline
90
2
70
128
38
0.0
39
0.0
10
3569.73427851409
20
19.2582145288288
40
0.1
41
0.1
42
0.0
10
3569.73427851409
20
33.2582145288288
40
0.1
41
0.1
42
0.0
210
0.0
220
0.0
230
1.0
0
LWPOLYLINE
5
44
330
1C
100
AcDbEntity
67
0
8
spdCmdManufTaoliaoGnDraw
62
7
6
Continuous
370
-1
48
1.0
60
0
100
AcDbPolyline
90
2
70
128
38
0.0
39
0.0
10
3569.73427851409
20
19.2582145288288
40
0.1
41
0.1
42
0.0
10
3569.73427851409
20
33.2582145288288
40
0.1
41
0.1
42
0.0
210
0.0
220
0.0
230
1.0
0
LWPOLYLINE
5
45
330
1C
100
AcDbEntity
67
0
8
spdCmdManufTaoliaoGnDraw
62
7
6
Continuous
370
-1
48
1.0
60
0
100
AcDbPolyline
90
2
70
128
38
0.0
39
0.0
10
3570.23427851409
20
19.2582145288288
40
0.1
41
0.1
42
0.0
10
3570.23427851409
20
33.2582145288288
40
0.1
41
0.1
42
0.0
210
0.0
220
0.0
230
1.0
0
LWPOLYLINE
5
46
330
1C
100
AcDbEntity
67
0
8
spdCmdManufTaoliaoGnDraw
62
7
6
Continuous
370
-1
48
1.0
60
0
100
AcDbPolyline
90
2
70
128
38
0.0
39
0.0
10
3570.23427851409
20
19.2582145288288
40
0.1
41
0.1
42
0.0
10
3570.23427851409
20
33.2582145288288
40
0.1
41
0.1
42
0.0
210
0.0
220
0.0
230
1.0
0
LWPOLYLINE
5
47
330
1C
100
AcDbEntity
67
0
8
spdCmdManufTaoliaoGnDraw
62
7
6
Continuous
370
-1
48
1.0
60
0
100
AcDbPolyline
90
2
70
128
38
0.0
39
0.0
10
3575.98427851409
20
19.2582145288288
40
0.1
41
0.1
42
0.0
10
3575.98427851409
20
33.2582145288288
40
0.1
41
0.1
42
0.0
210
0.0
220
0.0
230
1.0
0
LWPOLYLINE
5
48
330
1C
100
AcDbEntity
67
0
8
spdCmdManufTaoliaoGnDraw
62
7
6
Continuous
370
-1
48
1.0
60
0
100
AcDbPolyline
90
2
70
128
38
0.0
39
0.0
10
3575.98427851409
20
19.2582145288288
40
0.1
41
0.1
42
0.0
10
3575.98427851409
20
33.2582145288288
40
0.1
41
0.1
42
0.0
210
0.0
220
0.0
230
1.0
0
LWPOLYLINE
5
49
330
1C
100
AcDbEntity
67
0
8
spdCmdManufTaoliaoGnDraw
62
7
6
Continuous
370
-1
48
1.0
60
0
100
AcDbPolyline
90
2
70
128
38
0.0
39
0.0
10
3603.98427851409
20
19.2582145288288
40
0.1
41
0.1
42
0.0
10
3603.98427851409
20
33.2582145288288
40
0.1
41
0.1
42
0.0
210
0.0
220
0.0
230
1.0
0
LWPOLYLINE
5
4A
330
1C
100
AcDbEntity
67
0
8
spdCmdManufTaoliaoGnDraw
62
7
6
Continuous
370
-1
48
1.0
60
0
100
AcDbPolyline
90
2
70
128
38
0.0
39
0.0
10
3603.98427851409
20
19.2582145288288
40
0.1
41
0.1
42
0.0
10
3603.98427851409
20
33.2582145288288
40
0.1
41
0.1
42
0.0
210
0.0
220
0.0
230
1.0
0
LWPOLYLINE
5
4B
330
1C
100
AcDbEntity
67
0
8
spdCmdManufTaoliaoGnDraw
62
7
6
Continuous
370
-1
48
1.0
60
0
100
AcDbPolyline
90
2
70
128
38
0.0
39
0.0
10
3621.98427851409
20
19.2582145288288
40
0.1
41
0.1
42
0.0
10
3621.98427851409
20
33.2582145288288
40
0.1
41
0.1
42
0.0
210
0.0
220
0.0
230
1.0
0
LWPOLYLINE
5
4C
330
1C
100
AcDbEntity
67
0
8
spdCmdManufTaoliaoGnDraw
62
7
6
Continuous
370
-1
48
1.0
60
0
100
AcDbPolyline
90
2
70
128
38
0.0
39
0.0
10
3621.98427851409
20
19.2582145288288
40
0.1
41
0.1
42
0.0
10
3621.98427851409
20
33.2582145288288
40
0.1
41
0.1
42
0.0
210
0.0
220
0.0
230
1.0
0
LWPOLYLINE
5
4D
330
1C
100
AcDbEntity
67
0
8
spdCmdManufTaoliaoGnDraw
62
7
6
Continuous
370
-1
48
1.0
60
0
100
AcDbPolyline
90
2
70
128
38
0.0
39
0.0
10
3635.98427851409
20
19.2582145288288
40
0.1
41
0.1
42
0.0
10
3635.98427851409
20
33.2582145288288
40
0.1
41
0.1
42
0.0
210
0.0
220
0.0
230
1.0
0
LWPOLYLINE
5
4E
330
1C
100
AcDbEntity
67
0
8
spdCmdManufTaoliaoGnDraw
62
7
6
Continuous
370
-1
48
1.0
60
0
100
AcDbPolyline
90
2
70
128
38
0.0
39
0.0
10
3635.98427851409
20
19.2582145288288
40
0.1
41
0.1
42
0.0
10
3635.98427851409
20
33.2582145288288
40
0.1
41
0.1
42
0.0
210
0.0
220
0.0
230
1.0
0
LWPOLYLINE
5
4F
330
1C
100
AcDbEntity
67
0
8
spdCmdManufTaoliaoGnDraw
62
7
6
Continuous
370
-1
48
1.0
60
0
100
AcDbPolyline
90
2
70
128
38
0.0
39
0.0
10
3646.98427851409
20
19.2582145288288
40
0.1
41
0.1
42
0.0
10
3646.98427851409
20
33.2582145288288
40
0.1
41
0.1
42
0.0
210
0.0
220
0.0
230
1.0
0
LWPOLYLINE
5
50
330
1C
100
AcDbEntity
67
0
8
spdCmdManufTaoliaoGnDraw
62
7
6
Continuous
370
-1
48
1.0
60
0
100
AcDbPolyline
90
2
70
128
38
0.0
39
0.0
10
3646.98427851409
20
19.2582145288288
40
0.1
41
0.1
42
0.0
10
3646.98427851409
20
33.2582145288288
40
0.1
41
0.1
42
0.0
210
0.0
220
0.0
230
1.0
0
LWPOLYLINE
5
51
330
1C
100
AcDbEntity
67
0
8
spdCmdManufTaoliaoGnDraw
62
7
6
Continuous
370
-1
48
1.0
60
0
100
AcDbPolyline
90
2
70
128
38
0.0
39
0.0
10
3662.98427851409
20
19.2582145288288
40
0.1
41
0.1
42
0.0
10
3662.98427851409
20
33.2582145288288
40
0.1
41
0.1
42
0.0
210
0.0
220
0.0
230
1.0
0
LWPOLYLINE
5
52
330
1C
100
AcDbEntity
67
0
8
spdCmdManufTaoliaoGnDraw
62
7
6
Continuous
370
-1
48
1.0
60
0
100
AcDbPolyline
90
2
70
128
38
0.0
39
0.0
10
3662.98427851409
20
19.2582145288288
40
0.1
41
0.1
42
0.0
10
3662.98427851409
20
33.2582145288288
40
0.1
41
0.1
42
0.0
210
0.0
220
0.0
230
1.0
0
LWPOLYLINE
5
53
330
1C
100
AcDbEntity
67
0
8
spdCmdManufTaoliaoGnDraw
62
7
6
Continuous
370
-1
48
1.0
60
0
100
AcDbPolyline
90
2
70
128
38
0.0
39
0.0
10
3662.73427851409
20
19.2582145288288
40
0.1
41
0.1
42
0.0
10
3662.73427851409
20
33.2582145288288
40
0.1
41
0.1
42
0.0
210
0.0
220
0.0
230
1.0
0
LWPOLYLINE
5
54
330
1C
100
AcDbEntity
67
0
8
spdCmdManufTaoliaoGnDraw
62
7
6
Continuous
370
-1
48
1.0
60
0
100
AcDbPolyline
90
2
70
128
38
0.0
39
0.0
10
3662.73427851409
20
19.2582145288288
40
0.1
41
0.1
42
0.0
10
3662.73427851409
20
33.2582145288288
40
0.1
41
0.1
42
0.0
210
0.0
220
0.0
230
1.0
0
LWPOLYLINE
5
55
330
1C
100
AcDbEntity
67
0
8
spdCmdManufTaoliaoGnDraw
62
7
6
Continuous
370
-1
48
1.0
60
0
100
AcDbPolyline
90
2
70
128
38
0.0
39
0.0
10
3663.23427851409
20
19.2582145288288
40
0.1
41
0.1
42
0.0
10
3663.23427851409
20
33.2582145288288
40
0.1
41
0.1
42
0.0
210
0.0
220
0.0
230
1.0
0
LWPOLYLINE
5
56
330
1C
100
AcDbEntity
67
0
8
spdCmdManufTaoliaoGnDraw
62
7
6
Continuous
370
-1
48
1.0
60
0
100
AcDbPolyline
90
2
70
128
38
0.0
39
0.0
10
3663.23427851409
20
19.2582145288288
40
0.1
41
0.1
42
0.0
10
3663.23427851409
20
33.2582145288288
40
0.1
41
0.1
42
0.0
210
0.0
220
0.0
230
1.0
0
LWPOLYLINE
5
57
330
1C
100
AcDbEntity
67
0
8
spdCmdManufTaoliaoGnDraw
62
7
6
Continuous
370
-1
48
1.0
60
0
100
AcDbPolyline
90
2
70
128
38
0.0
39
0.0
10
3668.98427851409
20
19.2582145288288
40
0.1
41
0.1
42
0.0
10
3668.98427851409
20
33.2582145288288
40
0.1
41
0.1
42
0.0
210
0.0
220
0.0
230
1.0
0
LWPOLYLINE
5
58
330
1C
100
AcDbEntity
67
0
8
spdCmdManufTaoliaoGnDraw
62
7
6
Continuous
370
-1
48
1.0
60
0
100
AcDbPolyline
90
2
70
128
38
0.0
39
0.0
10
3668.98427851409
20
19.2582145288288
40
0.1
41
0.1
42
0.0
10
3668.98427851409
20
33.2582145288288
40
0.1
41
0.1
42
0.0
210
0.0
220
0.0
230
1.0
0
LWPOLYLINE
5
59
330
1C
100
AcDbEntity
67
0
8
spdCmdManufTaoliaoGnDraw
62
7
6
Continuous
370
-1
48
1.0
60
0
100
AcDbPolyline
90
2
70
128
38
0.0
39
0.0
10
3696.98427851409
20
19.2582145288288
40
0.1
41
0.1
42
0.0
10
3696.98427851409
20
33.2582145288288
40
0.1
41
0.1
42
0.0
210
0.0
220
0.0
230
1.0
0
LWPOLYLINE
5
5A
330
1C
100
AcDbEntity
67
0
8
spdCmdManufTaoliaoGnDraw
62
7
6
Continuous
370
-1
48
1.0
60
0
100
AcDbPolyline
90
2
70
128
38
0.0
39
0.0
10
3696.98427851409
20
19.2582145288288
40
0.1
41
0.1
42
0.0
10
3696.98427851409
20
33.2582145288288
40
0.1
41
0.1
42
0.0
210
0.0
220
0.0
230
1.0
0
LWPOLYLINE
5
5B
330
1C
100
AcDbEntity
67
0
8
spdCmdManufTaoliaoGnDraw
62
7
6
Continuous
370
-1
48
1.0
60
0
100
AcDbPolyline
90
2
70
128
38
0.0
39
0.0
10
3714.98427851409
20
19.2582145288288
40
0.1
41
0.1
42
0.0
10
3714.98427851409
20
33.2582145288288
40
0.1
41
0.1
42
0.0
210
0.0
220
0.0
230
1.0
0
LWPOLYLINE
5
5C
330
1C
100
AcDbEntity
67
0
8
spdCmdManufTaoliaoGnDraw
62
7
6
Continuous
370
-1
48
1.0
60
0
100
AcDbPolyline
90
2
70
128
38
0.0
39
0.0
10
3714.98427851409
20
19.2582145288288
40
0.1
41
0.1
42
0.0
10
3714.98427851409
20
33.2582145288288
40
0.1
41
0.1
42
0.0
210
0.0
220
0.0
230
1.0
0
LWPOLYLINE
5
5D
330
1C
100
AcDbEntity
67
0
8
spdCmdManufTaoliaoGnDraw
62
7
6
Continuous
370
-1
48
1.0
60
0
100
AcDbPolyline
90
2
70
128
38
0.0
39
0.0
10
3728.98427851409
20
19.2582145288288
40
0.1
41
0.1
42
0.0
10
3728.98427851409
20
33.2582145288288
40
0.1
41
0.1
42
0.0
210
0.0
220
0.0
230
1.0
0
LWPOLYLINE
5
5E
330
1C
100
AcDbEntity
67
0
8
spdCmdManufTaoliaoGnDraw
62
7
6
Continuous
370
-1
48
1.0
60
0
100
AcDbPolyline
90
2
70
128
38
0.0
39
0.0
10
3728.98427851409
20
19.2582145288288
40
0.1
41
0.1
42
0.0
10
3728.98427851409
20
33.2582145288288
40
0.1
41
0.1
42
0.0
210
0.0
220
0.0
230
1.0
0
LWPOLYLINE
5
5F
330
1C
100
AcDbEntity
67
0
8
spdCmdManufTaoliaoGnDraw
62
7
6
Continuous
370
-1
48
1.0
60
0
100
AcDbPolyline
90
2
70
128
38
0.0
39
0.0
10
3739.98427851409
20
19.2582145288288
40
0.1
41
0.1
42
0.0
10
3739.98427851409
20
33.2582145288288
40
0.1
41
0.1
42
0.0
210
0.0
220
0.0
230
1.0
0
LWPOLYLINE
5
60
330
1C
100
AcDbEntity
67
0
8
spdCmdManufTaoliaoGnDraw
62
7
6
Continuous
370
-1
48
1.0
60
0
100
AcDbPolyline
90
2
70
128
38
0.0
39
0.0
10
3739.98427851409
20
19.2582145288288
40
0.1
41
0.1
42
0.0
10
3739.98427851409
20
33.2582145288288
40
0.1
41
0.1
42
0.0
210
0.0
220
0.0
230
1.0
0
LWPOLYLINE
5
61
330
1C
100
AcDbEntity
67
0
8
spdCmdManufTaoliaoGnDraw
62
7
6
Continuous
370
-1
48
1.0
60
0
100
AcDbPolyline
90
2
70
128
38
0.0
39
0.0
10
3383.98427851409
20
27.2582145288288
40
0.1
41
0.1
42
0.0
10
3755.98427851409
20
27.2582145288288
40
0.1
41
0.1
42
0.0
210
0.0
220
0.0
230
1.0
0
LWPOLYLINE
5
62
330
1C
100
AcDbEntity
67
0
8
spdCmdManufTaoliaoGnDraw
62
7
6
Continuous
370
-1
48
1.0
60
0
100
AcDbPolyline
90
2
70
128
38
0.0
39
0.0
10
3383.98427851409
20
27.2582145288288
40
0.1
41
0.1
42
0.0
10
3755.98427851409
20
27.2582145288288
40
0.1
41
0.1
42
0.0
210
0.0
220
0.0
230
1.0
0
LWPOLYLINE
5
63
330
1C
100
AcDbEntity
67
0
8
spdCmdManufTaoliaoGnDraw
62
7
6
Continuous
370
-1
48
1.0
60
0
100
AcDbPolyline
90
2
70
128
38
0.0
39
0.0
10
3383.98427851409
20
33.2582145288288
40
0.1
41
0.1
42
0.0
10
3755.98427851409
20
33.2582145288288
40
0.1
41
0.1
42
0.0
210
0.0
220
0.0
230
1.0
0
LWPOLYLINE
5
64
330
1C
100
AcDbEntity
67
0
8
spdCmdManufTaoliaoGnDraw
62
7
6
Continuous
370
-1
48
1.0
60
0
100
AcDbPolyline
90
2
70
128
38
0.0
39
0.0
10
3383.98427851409
20
33.2582145288288
40
0.1
41
0.1
42
0.0
10
3755.98427851409
20
33.2582145288288
40
0.1
41
0.1
42
0.0
210
0.0
220
0.0
230
1.0
0
LWPOLYLINE
5
65
330
1C
100
AcDbEntity
67
0
8
spdCmdManufTaoliaoGnDraw
62
7
6
Continuous
370
-1
48
1.0
60
0
100
AcDbPolyline
90
2
70
128
38
0.0
39
0.0
10
3475.98427851409
20
271.258214528829
40
0.1
41
0.1
42
0.0
10
3755.98427851409
20
271.258214528829
40
0.1
41
0.1
42
0.0
210
0.0
220
0.0
230
1.0
0
LWPOLYLINE
5
66
330
1C
100
AcDbEntity
67
0
8
spdCmdManufTaoliaoGnDraw
62
7
6
Continuous
370
-1
48
1.0
60
0
100
AcDbPolyline
90
2
70
128
38
0.0
39
0.0
10
3475.98427851409
20
271.258214528829
40
0.1
41
0.1
42
0.0
10
3755.98427851409
20
271.258214528829
40
0.1
41
0.1
42
0.0
210
0.0
220
0.0
230
1.0
0
LWPOLYLINE
5
67
330
1C
100
AcDbEntity
67
0
8
spdCmdManufTaoliaoGnDraw
62
7
6
Continuous
370
-1
48
1.0
60
0
100
AcDbPolyline
90
2
70
128
38
0.0
39
0.0
10
3475.98427851409
20
263.258214528829
40
0.1
41
0.1
42
0.0
10
3755.98427851409
20
263.258214528829
40
0.1
41
0.1
42
0.0
210
0.0
220
0.0
230
1.0
0
LWPOLYLINE
5
68
330
1C
100
AcDbEntity
67
0
8
spdCmdManufTaoliaoGnDraw
62
7
6
Continuous
370
-1
48
1.0
60
0
100
AcDbPolyline
90
2
70
128
38
0.0
39
0.0
10
3475.98427851409
20
263.258214528829
40
0.1
41
0.1
42
0.0
10
3755.98427851409
20
263.258214528829
40
0.1
41
0.1
42
0.0
210
0.0
220
0.0
230
1.0
0
LWPOLYLINE
5
69
330
1C
100
AcDbEntity
67
0
8
spdCmdManufTaoliaoGnDraw
62
7
6
Continuous
370
-1
48
1.0
60
0
100
AcDbPolyline
90
2
70
128
38
0.0
39
0.0
10
3383.98427851409
20
255.258214528829
40
0.1
41
0.1
42
0.0
10
3755.98427851409
20
255.258214528829
40
0.1
41
0.1
42
0.0
210
0.0
220
0.0
230
1.0
0
LWPOLYLINE
5
6A
330
1C
100
AcDbEntity
67
0
8
spdCmdManufTaoliaoGnDraw
62
7
6
Continuous
370
-1
48
1.0
60
0
100
AcDbPolyline
90
2
70
128
38
0.0
39
0.0
10
3383.98427851409
20
255.258214528829
40
0.1
41
0.1
42
0.0
10
3755.98427851409
20
255.258214528829
40
0.1
41
0.1
42
0.0
210
0.0
220
0.0
230
1.0
0
LWPOLYLINE
5
6B
330
1C
100
AcDbEntity
67
0
8
spdCmdManufTaoliaoGnDraw
62
7
6
Continuous
370
-1
48
1.0
60
0
100
AcDbPolyline
90
2
70
128
38
0.0
39
0.0
10
3383.98427851409
20
247.258214528829
40
0.1
41
0.1
42
0.0
10
3755.98427851409
20
247.258214528829
40
0.1
41
0.1
42
0.0
210
0.0
220
0.0
230
1.0
0
LWPOLYLINE
5
6C
330
1C
100
AcDbEntity
67
0
8
spdCmdManufTaoliaoGnDraw
62
7
6
Continuous
370
-1
48
1.0
60
0
100
AcDbPolyline
90
2
70
128
38
0.0
39
0.0
10
3383.98427851409
20
247.258214528829
40
0.1
41
0.1
42
0.0
10
3755.98427851409
20
247.258214528829
40
0.1
41
0.1
42
0.0
210
0.0
220
0.0
230
1.0
0
LWPOLYLINE
5
6D
330
1C
100
AcDbEntity
67
0
8
spdCmdManufTaoliaoGnDraw
62
7
6
Continuous
370
-1
48
1.0
60
0
100
AcDbPolyline
90
2
70
128
38
0.0
39
0.0
10
3727.98427851409
20
279.258214528829
40
0.1
41
0.1
42
0.0
10
3727.98427851409
20
247.258214528829
40
0.1
41
0.1
42
0.0
210
0.0
220
0.0
230
1.0
0
LWPOLYLINE
5
6E
330
1C
100
AcDbEntity
67
0
8
spdCmdManufTaoliaoGnDraw
62
7
6
Continuous
370
-1
48
1.0
60
0
100
AcDbPolyline
90
2
70
128
38
0.0
39
0.0
10
3727.98427851409
20
279.258214528829
40
0.1
41
0.1
42
0.0
10
3727.98427851409
20
247.258214528829
40
0.1
41
0.1
42
0.0
210
0.0
220
0.0
230
1.0
0
LWPOLYLINE
5
6F
330
1C
100
AcDbEntity
67
0
8
spdCmdManufTaoliaoGnDraw
62
7
6
Continuous
370
-1
48
1.0
60
0
100
AcDbPolyline
90
2
70
128
38
0.0
39
0.0
10
3699.98427851409
20
279.258214528829
40
0.1
41
0.1
42
0.0
10
3699.98427851409
20
247.258214528829
40
0.1
41
0.1
42
0.0
210
0.0
220
0.0
230
1.0
0
LWPOLYLINE
5
70
330
1C
100
AcDbEntity
67
0
8
spdCmdManufTaoliaoGnDraw
62
7
6
Continuous
370
-1
48
1.0
60
0
100
AcDbPolyline
90
2
70
128
38
0.0
39
0.0
10
3699.98427851409
20
279.258214528829
40
0.1
41
0.1
42
0.0
10
3699.98427851409
20
247.258214528829
40
0.1
41
0.1
42
0.0
210
0.0
220
0.0
230
1.0
0
LWPOLYLINE
5
71
330
1C
100
AcDbEntity
67
0
8
spdCmdManufTaoliaoGnDraw
62
7
6
Continuous
370
-1
48
1.0
60
0
100
AcDbPolyline
90
2
70
128
38
0.0
39
0.0
10
3671.98427851409
20
279.258214528829
40
0.1
41
0.1
42
0.0
10
3671.98427851409
20
247.258214528829
40
0.1
41
0.1
42
0.0
210
0.0
220
0.0
230
1.0
0
LWPOLYLINE
5
72
330
1C
100
AcDbEntity
67
0
8
spdCmdManufTaoliaoGnDraw
62
7
6
Continuous
370
-1
48
1.0
60
0
100
AcDbPolyline
90
2
70
128
38
0.0
39
0.0
10
3671.98427851409
20
279.258214528829
40
0.1
41
0.1
42
0.0
10
3671.98427851409
20
247.258214528829
40
0.1
41
0.1
42
0.0
210
0.0
220
0.0
230
1.0
0
LWPOLYLINE
5
73
330
1C
100
AcDbEntity
67
0
8
spdCmdManufTaoliaoGnDraw
62
7
6
Continuous
370
-1
48
1.0
60
0
100
AcDbPolyline
90
2
70
128
38
0.0
39
0.0
10
3643.98427851409
20
279.258214528829
40
0.1
41
0.1
42
0.0
10
3643.98427851409
20
247.258214528829
40
0.1
41
0.1
42
0.0
210
0.0
220
0.0
230
1.0
0
LWPOLYLINE
5
74
330
1C
100
AcDbEntity
67
0
8
spdCmdManufTaoliaoGnDraw
62
7
6
Continuous
370
-1
48
1.0
60
0
100
AcDbPolyline
90
2
70
128
38
0.0
39
0.0
10
3643.98427851409
20
279.258214528829
40
0.1
41
0.1
42
0.0
10
3643.98427851409
20
247.258214528829
40
0.1
41
0.1
42
0.0
210
0.0
220
0.0
230
1.0
0
LWPOLYLINE
5
75
330
1C
100
AcDbEntity
67
0
8
spdCmdManufTaoliaoGnDraw
62
7
6
Continuous
370
-1
48
1.0
60
0
100
AcDbPolyline
90
2
70
128
38
0.0
39
0.0
10
3621.98427851409
20
279.258214528829
40
0.1
41
0.1
42
0.0
10
3621.98427851409
20
247.258214528829
40
0.1
41
0.1
42
0.0
210
0.0
220
0.0
230
1.0
0
LWPOLYLINE
5
76
330
1C
100
AcDbEntity
67
0
8
spdCmdManufTaoliaoGnDraw
62
7
6
Continuous
370
-1
48
1.0
60
0
100
AcDbPolyline
90
2
70
128
38
0.0
39
0.0
10
3621.98427851409
20
279.258214528829
40
0.1
41
0.1
42
0.0
10
3621.98427851409
20
247.258214528829
40
0.1
41
0.1
42
0.0
210
0.0
220
0.0
230
1.0
0
LWPOLYLINE
5
77
330
1C
100
AcDbEntity
67
0
8
spdCmdManufTaoliaoGnDraw
62
7
6
Continuous
370
-1
48
1.0
60
0
100
AcDbPolyline
90
2
70
128
38
0.0
39
0.0
10
3593.98427851409
20
279.258214528829
40
0.1
41
0.1
42
0.0
10
3593.98427851409
20
247.258214528829
40
0.1
41
0.1
42
0.0
210
0.0
220
0.0
230
1.0
0
LWPOLYLINE
5
78
330
1C
100
AcDbEntity
67
0
8
spdCmdManufTaoliaoGnDraw
62
7
6
Continuous
370
-1
48
1.0
60
0
100
AcDbPolyline
90
2
70
128
38
0.0
39
0.0
10
3593.98427851409
20
279.258214528829
40
0.1
41
0.1
42
0.0
10
3593.98427851409
20
247.258214528829
40
0.1
41
0.1
42
0.0
210
0.0
220
0.0
230
1.0
0
LWPOLYLINE
5
79
330
1C
100
AcDbEntity
67
0
8
spdCmdManufTaoliaoGnDraw
62
7
6
Continuous
370
-1
48
1.0
60
0
100
AcDbPolyline
90
2
70
128
38
0.0
39
0.0
10
3559.98427851409
20
279.258214528829
40
0.1
41
0.1
42
0.0
10
3559.98427851409
20
247.258214528829
40
0.1
41
0.1
42
0.0
210
0.0
220
0.0
230
1.0
0
LWPOLYLINE
5
7A
330
1C
100
AcDbEntity
67
0
8
spdCmdManufTaoliaoGnDraw
62
7
6
Continuous
370
-1
48
1.0
60
0
100
AcDbPolyline
90
2
70
128
38
0.0
39
0.0
10
3559.98427851409
20
279.258214528829
40
0.1
41
0.1
42
0.0
10
3559.98427851409
20
247.258214528829
40
0.1
41
0.1
42
0.0
210
0.0
220
0.0
230
1.0
0
LWPOLYLINE
5
7B
330
1C
100
AcDbEntity
67
0
8
spdCmdManufTaoliaoGnDraw
62
7
6
Continuous
370
-1
48
1.0
60
0
100
AcDbPolyline
90
2
70
128
38
0.0
39
0.0
10
3531.98427851409
20
279.258214528829
40
0.1
41
0.1
42
0.0
10
3531.98427851409
20
247.258214528829
40
0.1
41
0.1
42
0.0
210
0.0
220
0.0
230
1.0
0
LWPOLYLINE
5
7C
330
1C
100
AcDbEntity
67
0
8
spdCmdManufTaoliaoGnDraw
62
7
6
Continuous
370
-1
48
1.0
60
0
100
AcDbPolyline
90
2
70
128
38
0.0
39
0.0
10
3531.98427851409
20
279.258214528829
40
0.1
41
0.1
42
0.0
10
3531.98427851409
20
247.258214528829
40
0.1
41
0.1
42
0.0
210
0.0
220
0.0
230
1.0
0
LWPOLYLINE
5
7D
330
1C
100
AcDbEntity
67
0
8
spdCmdManufTaoliaoGnDraw
62
7
6
Continuous
370
-1
48
1.0
60
0
100
AcDbPolyline
90
2
70
128
38
0.0
39
0.0
10
3503.98427851409
20
279.258214528829
40
0.1
41
0.1
42
0.0
10
3503.98427851409
20
247.258214528829
40
0.1
41
0.1
42
0.0
210
0.0
220
0.0
230
1.0
0
LWPOLYLINE
5
7E
330
1C
100
AcDbEntity
67
0
8
spdCmdManufTaoliaoGnDraw
62
7
6
Continuous
370
-1
48
1.0
60
0
100
AcDbPolyline
90
2
70
128
38
0.0
39
0.0
10
3503.98427851409
20
279.258214528829
40
0.1
41
0.1
42
0.0
10
3503.98427851409
20
247.258214528829
40
0.1
41
0.1
42
0.0
210
0.0
220
0.0
230
1.0
0
LWPOLYLINE
5
7F
330
1C
100
AcDbEntity
67
0
8
spdCmdManufTaoliaoGnDraw
62
7
6
Continuous
370
-1
48
1.0
60
0
100
AcDbPolyline
90
2
70
128
38
0.0
39
0.0
10
3475.98427851409
20
279.258214528829
40
0.1
41
0.1
42
0.0
10
3475.98427851409
20
247.258214528829
40
0.1
41
0.1
42
0.0
210
0.0
220
0.0
230
1.0
0
LWPOLYLINE
5
80
330
1C
100
AcDbEntity
67
0
8
spdCmdManufTaoliaoGnDraw
62
7
6
Continuous
370
-1
48
1.0
60
0
100
AcDbPolyline
90
2
70
128
38
0.0
39
0.0
10
3475.98427851409
20
279.258214528829
40
0.1
41
0.1
42
0.0
10
3475.98427851409
20
247.258214528829
40
0.1
41
0.1
42
0.0
210
0.0
220
0.0
230
1.0
0
LWPOLYLINE
5
81
330
1C
100
AcDbEntity
67
0
8
spdCmdManufTaoliaoGnDraw
62
7
6
Continuous
370
-1
48
1.0
60
0
100
AcDbPolyline
90
2
70
128
38
0.0
39
0.0
10
3397.98427851409
20
255.258214528829
40
0.1
41
0.1
42
0.0
10
3397.98427851409
20
247.258214528829
40
0.1
41
0.1
42
0.0
210
0.0
220
0.0
230
1.0
0
LWPOLYLINE
5
82
330
1C
100
AcDbEntity
67
0
8
spdCmdManufTaoliaoGnDraw
62
7
6
Continuous
370
-1
48
1.0
60
0
100
AcDbPolyline
90
2
70
128
38
0.0
39
0.0
10
3397.98427851409
20
255.258214528829
40
0.1
41
0.1
42
0.0
10
3397.98427851409
20
247.258214528829
40
0.1
41
0.1
42
0.0
210
0.0
220
0.0
230
1.0
0
LWPOLYLINE
5
83
330
1C
100
AcDbEntity
67
0
8
spdCmdManufTaoliaoGnDraw
62
7
6
Continuous
370
-1
48
1.0
60
0
100
AcDbPolyline
90
6
70
129
38
0.0
39
0.0
10
3389.16427851409
20
191.008214528829
40
0.1
41
0.1
42
0.0
10
3389.26427851409
20
191.108214528829
40
0.1
41
0.1
42
0.0
10
3730.84427851409
20
191.108214528829
40
0.1
41
0.1
42
0.0
10
3730.84427851409
20
241.148214528829
40
0.1
41
0.1
42
0.0
10
3389.26427851409
20
241.148214528829
40
0.1
41
0.1
42
0.0
10
3389.26427851409
20
191.108214528829
40
0.1
41
0.1
42
0.0
210
0.0
220
0.0
230
1.0
0
LWPOLYLINE
5
84
330
1C
100
AcDbEntity
67
0
8
spdCmdManufTaoliaoGnDraw
62
7
6
Continuous
370
-1
48
1.0
60
0
100
AcDbPolyline
90
6
70
129
38
0.0
39
0.0
10
3389.16427851409
20
191.008214528829
40
0.1
41
0.1
42
0.0
10
3389.26427851409
20
191.108214528829
40
0.1
41
0.1
42
0.0
10
3730.84427851409
20
191.108214528829
40
0.1
41
0.1
42
0.0
10
3730.84427851409
20
241.148214528829
40
0.1
41
0.1
42
0.0
10
3389.26427851409
20
241.148214528829
40
0.1
41
0.1
42
0.0
10
3389.26427851409
20
191.108214528829
40
0.1
41
0.1
42
0.0
210
0.0
220
0.0
230
1.0
0
LWPOLYLINE
5
85
330
1C
100
AcDbEntity
67
0
8
spdCmdManufTaoliaoGnDraw
62
7
6
Continuous
370
-1
48
1.0
60
0
100
AcDbPolyline
90
6
70
129
38
0.0
39
0.0
10
3389.16427851409
20
191.008214528829
40
0.1
41
0.1
42
0.0
10
3389.26427851409
20
191.108214528829
40
0.1
41
0.1
42
0.0
10
3730.84427851409
20
191.108214528829
40
0.1
41
0.1
42
0.0
10
3730.84427851409
20
241.148214528829
40
0.1
41
0.1
42
0.0
10
3389.26427851409
20
241.148214528829
40
0.1
41
0.1
42
0.0
10
3389.26427851409
20
191.108214528829
40
0.1
41
0.1
42
0.0
210
0.0
220
0.0
230
1.0
0
LWPOLYLINE
5
86
330
1C
100
AcDbEntity
67
0
8
spdCmdManufTaoliaoGnDraw
62
7
6
Continuous
370
-1
48
1.0
60
0
100
AcDbPolyline
90
6
70
129
38
0.0
39
0.0
10
3389.16427851409
20
191.008214528829
40
0.1
41
0.1
42
0.0
10
3389.26427851409
20
191.108214528829
40
0.1
41
0.1
42
0.0
10
3730.84427851409
20
191.108214528829
40
0.1
41
0.1
42
0.0
10
3730.84427851409
20
241.148214528829
40
0.1
41
0.1
42
0.0
10
3389.26427851409
20
241.148214528829
40
0.1
41
0.1
42
0.0
10
3389.26427851409
20
191.108214528829
40
0.1
41
0.1
42
0.0
210
0.0
220
0.0
230
1.0
0
LWPOLYLINE
5
87
330
1C
100
AcDbEntity
67
0
8
spdCmdManufTaoliaoGnDraw
62
7
6
Continuous
370
-1
48
1.0
60
0
100
AcDbPolyline
90
6
70
129
38
0.0
39
0.0
10
3389.16427851409
20
191.008214528829
40
0.1
41
0.1
42
0.0
10
3389.26427851409
20
191.108214528829
40
0.1
41
0.1
42
0.0
10
3730.84427851409
20
191.108214528829
40
0.1
41
0.1
42
0.0
10
3730.84427851409
20
241.148214528829
40
0.1
41
0.1
42
0.0
10
3389.26427851409
20
241.148214528829
40
0.1
41
0.1
42
0.0
10
3389.26427851409
20
191.108214528829
40
0.1
41
0.1
42
0.0
210
0.0
220
0.0
230
1.0
0
LWPOLYLINE
5
88
330
1C
100
AcDbEntity
67
0
8
spdCmdManufTaoliaoGnDraw
62
7
6
Continuous
370
-1
48
1.0
60
0
100
AcDbPolyline
90
6
70
129
38
0.0
39
0.0
10
3389.16427851409
20
191.008214528829
40
0.1
41
0.1
42
0.0
10
3389.26427851409
20
191.108214528829
40
0.1
41
0.1
42
0.0
10
3730.84427851409
20
191.108214528829
40
0.1
41
0.1
42
0.0
10
3730.84427851409
20
241.148214528829
40
0.1
41
0.1
42
0.0
10
3389.26427851409
20
241.148214528829
40
0.1
41
0.1
42
0.0
10
3389.26427851409
20
191.108214528829
40
0.1
41
0.1
42
0.0
210
0.0
220
0.0
230
1.0
0
LWPOLYLINE
5
89
330
1C
100
AcDbEntity
67
0
8
markline
62
4
6
Continuous
370
-1
48
1.0
60
0
100
AcDbPolyline
90
2
70
128
38
0.0
39
0.0
10
3727.98427851409
20
191.108214528829
40
0.1
41
0.1
42
0.0
10
3727.98427851409
20
241.128214528829
40
0.1
41
0.1
42
0.0
210
0.0
220
0.0
230
1.0
0
LWPOLYLINE
5
8B
330
1C
100
AcDbEntity
67
0
8
markline
62
4
6
Continuous
370
-1
48
1.0
60
0
100
AcDbPolyline
90
2
70
128
38
0.0
39
0.0
10
3727.98427851409
20
191.108214528829
40
0.1
41
0.1
42
0.0
10
3727.98427851409
20
241.128214528829
40
0.1
41
0.1
42
0.0
210
0.0
220
0.0
230
1.0
0
LWPOLYLINE
5
8C
330
1C
100
AcDbEntity
67
0
8
markline
62
4
6
Continuous
370
-1
48
1.0
60
0
100
AcDbPolyline
90
2
70
128
38
0.0
39
0.0
10
3389.26427851409
20
193.968214528829
40
0.1
41
0.1
42
0.0
10
3730.84427851409
20
193.968214528829
40
0.1
41
0.1
42
0.0
210
0.0
220
0.0
230
1.0
0
LWPOLYLINE
5
8D
330
1C
100
AcDbEntity
67
0
8
markline
62
4
6
Continuous
370
-1
48
1.0
60
0
100
AcDbPolyline
90
2
70
128
38
0.0
39
0.0
10
3389.26427851409
20
193.968214528829
40
0.1
41
0.1
42
0.0
10
3730.84427851409
20
193.968214528829
40
0.1
41
0.1
42
0.0
210
0.0
220
0.0
230
1.0
0
LWPOLYLINE
5
8E
330
1C
100
AcDbEntity
67
0
8
markline
62
4
6
Continuous
370
-1
48
1.0
60
0
100
AcDbPolyline
90
2
70
128
38
0.0
39
0.0
10
3392.12427851409
20
241.128214528829
40
0.1
41
0.1
42
0.0
10
3392.12427851409
20
191.108214528829
40
0.1
41
0.1
42
0.0
210
0.0
220
0.0
230
1.0
0
LWPOLYLINE
5
8F
330
1C
100
AcDbEntity
67
0
8
markline
62
4
6
Continuous
370
-1
48
1.0
60
0
100
AcDbPolyline
90
2
70
128
38
0.0
39
0.0
10
3392.12427851409
20
241.128214528829
40
0.1
41
0.1
42
0.0
10
3392.12427851409
20
191.108214528829
40
0.1
41
0.1
42
0.0
210
0.0
220
0.0
230
1.0
0
LWPOLYLINE
5
90
330
1C
100
AcDbEntity
67
0
8
markline
62
4
6
Continuous
370
-1
48
1.0
60
0
100
AcDbPolyline
90
2
70
128
38
0.0
39
0.0
10
3555.62427851409
20
191.108214528829
40
0.1
41
0.1
42
0.0
10
3555.62427851409
20
241.148214528829
40
0.1
41
0.1
42
0.0
210
0.0
220
0.0
230
1.0
0
LWPOLYLINE
5
91
330
1C
100
AcDbEntity
67
0
8
markline
62
4
6
Continuous
370
-1
48
1.0
60
0
100
AcDbPolyline
90
2
70
128
38
0.0
39
0.0
10
3555.62427851409
20
191.108214528829
40
0.1
41
0.1
42
0.0
10
3555.62427851409
20
241.148214528829
40
0.1
41
0.1
42
0.0
210
0.0
220
0.0
230
1.0
0
LWPOLYLINE
5
92
330
1C
100
AcDbEntity
67
0
8
markline
62
4
6
Continuous
370
-1
48
1.0
60
0
100
AcDbPolyline
90
2
70
128
38
0.0
39
0.0
10
3418.42427851409
20
238.268214528829
40
0.1
41
0.1
42
0.0
10
3418.42427851409
20
220.008214528829
40
0.1
41
0.1
42
0.0
210
0.0
220
0.0
230
1.0
0
LWPOLYLINE
5
93
330
1C
100
AcDbEntity
67
0
8
markline
62
4
6
Continuous
370
-1
48
1.0
60
0
100
AcDbPolyline
90
2
70
128
38
0.0
39
0.0
10
3418.42427851409
20
238.268214528829
40
0.1
41
0.1
42
0.0
10
3418.42427851409
20
220.008214528829
40
0.1
41
0.1
42
0.0
210
0.0
220
0.0
230
1.0
0
LWPOLYLINE
5
94
330
1C
100
AcDbEntity
67
0
8
markline
62
4
6
Continuous
370
-1
48
1.0
60
0
100
AcDbPolyline
90
2
70
128
38
0.0
39
0.0
10
3498.45427851409
20
238.268214528829
40
0.1
41
0.1
42
0.0
10
3498.45427851409
20
220.008214528829
40
0.1
41
0.1
42
0.0
210
0.0
220
0.0
230
1.0
0
LWPOLYLINE
5
95
330
1C
100
AcDbEntity
67
0
8
markline
62
4
6
Continuous
370
-1
48
1.0
60
0
100
AcDbPolyline
90
2
70
128
38
0.0
39
0.0
10
3498.45427851409
20
238.268214528829
40
0.1
41
0.1
42
0.0
10
3498.45427851409
20
220.008214528829
40
0.1
41
0.1
42
0.0
210
0.0
220
0.0
230
1.0
0
LWPOLYLINE
5
96
330
1C
100
AcDbEntity
67
0
8
markline
62
4
6
Continuous
370
-1
48
1.0
60
0
100
AcDbPolyline
90
2
70
128
38
0.0
39
0.0
10
3578.49427851409
20
238.268214528829
40
0.1
41
0.1
42
0.0
10
3578.49427851409
20
220.008214528829
40
0.1
41
0.1
42
0.0
210
0.0
220
0.0
230
1.0
0
LWPOLYLINE
5
97
330
1C
100
AcDbEntity
67
0
8
markline
62
4
6
Continuous
370
-1
48
1.0
60
0
100
AcDbPolyline
90
2
70
128
38
0.0
39
0.0
10
3578.49427851409
20
238.268214528829
40
0.1
41
0.1
42
0.0
10
3578.49427851409
20
220.008214528829
40
0.1
41
0.1
42
0.0
210
0.0
220
0.0
230
1.0
0
LWPOLYLINE
5
98
330
1C
100
AcDbEntity
67
0
8
markline
62
4
6
Continuous
370
-1
48
1.0
60
0
100
AcDbPolyline
90
2
70
128
38
0.0
39
0.0
10
3658.52427851409
20
238.268214528829
40
0.1
41
0.1
42
0.0
10
3658.52427851409
20
220.008214528829
40
0.1
41
0.1
42
0.0
210
0.0
220
0.0
230
1.0
0
LWPOLYLINE
5
99
330
1C
100
AcDbEntity
67
0
8
markline
62
4
6
Continuous
370
-1
48
1.0
60
0
100
AcDbPolyline
90
2
70
128
38
0.0
39
0.0
10
3658.52427851409
20
238.268214528829
40
0.1
41
0.1
42
0.0
10
3658.52427851409
20
220.008214528829
40
0.1
41
0.1
42
0.0
210
0.0
220
0.0
230
1.0
0
LWPOLYLINE
5
9A
330
1C
100
AcDbEntity
67
0
8
markline
62
4
6
Continuous
370
-1
48
1.0
60
0
100
AcDbPolyline
90
2
70
128
38
0.0
39
0.0
10
3730.84427851409
20
238.268214528829
40
0.1
41
0.1
42
0.0
10
3389.26427851409
20
238.268214528829
40
0.1
41
0.1
42
0.0
210
0.0
220
0.0
230
1.0
0
LWPOLYLINE
5
9B
330
1C
100
AcDbEntity
67
0
8
markline
62
4
6
Continuous
370
-1
48
1.0
60
0
100
AcDbPolyline
90
2
70
128
38
0.0
39
0.0
10
3730.84427851409
20
238.268214528829
40
0.1
41
0.1
42
0.0
10
3389.26427851409
20
238.268214528829
40
0.1
41
0.1
42
0.0
210
0.0
220
0.0
230
1.0
0
LWPOLYLINE
5
9C
330
1C
100
AcDbEntity
67
0
8
markline
62
4
6
Continuous
370
-1
48
1.0
60
0
100
AcDbPolyline
90
2
70
128
38
0.0
39
0.0
10
3578.49427851409
20
241.148214528829
40
0.1
41
0.1
42
0.0
10
3578.49427851409
20
238.588214528829
40
0.1
41
0.1
42
0.0
210
0.0
220
0.0
230
1.0
0
LWPOLYLINE
5
9D
330
1C
100
AcDbEntity
67
0
8
markline
62
4
6
Continuous
370
-1
48
1.0
60
0
100
AcDbPolyline
90
2
70
128
38
0.0
39
0.0
10
3578.49427851409
20
241.148214528829
40
0.1
41
0.1
42
0.0
10
3578.49427851409
20
238.588214528829
40
0.1
41
0.1
42
0.0
210
0.0
220
0.0
230
1.0
0
LWPOLYLINE
5
9E
330
1C
100
AcDbEntity
67
0
8
markline
62
4
6
Continuous
370
-1
48
1.0
60
0
100
AcDbPolyline
90
2
70
128
38
0.0
39
0.0
10
3618.50427851409
20
241.148214528829
40
0.1
41
0.1
42
0.0
10
3618.50427851409
20
238.588214528829
40
0.1
41
0.1
42
0.0
210
0.0
220
0.0
230
1.0
0
LWPOLYLINE
5
9F
330
1C
100
AcDbEntity
67
0
8
markline
62
4
6
Continuous
370
-1
48
1.0
60
0
100
AcDbPolyline
90
2
70
128
38
0.0
39
0.0
10
3618.50427851409
20
241.148214528829
40
0.1
41
0.1
42
0.0
10
3618.50427851409
20
238.588214528829
40
0.1
41
0.1
42
0.0
210
0.0
220
0.0
230
1.0
0
LWPOLYLINE
5
A0
330
1C
100
AcDbEntity
67
0
8
markline
62
4
6
Continuous
370
-1
48
1.0
60
0
100
AcDbPolyline
90
2
70
128
38
0.0
39
0.0
10
3658.52427851409
20
241.148214528829
40
0.1
41
0.1
42
0.0
10
3658.52427851409
20
238.588214528829
40
0.1
41
0.1
42
0.0
210
0.0
220
0.0
230
1.0
0
LWPOLYLINE
5
A1
330
1C
100
AcDbEntity
67
0
8
markline
62
4
6
Continuous
370
-1
48
1.0
60
0
100
AcDbPolyline
90
2
70
128
38
0.0
39
0.0
10
3658.52427851409
20
241.148214528829
40
0.1
41
0.1
42
0.0
10
3658.52427851409
20
238.588214528829
40
0.1
41
0.1
42
0.0
210
0.0
220
0.0
230
1.0
0
LWPOLYLINE
5
A2
330
1C
100
AcDbEntity
67
0
8
markline
62
4
6
Continuous
370
-1
48
1.0
60
0
100
AcDbPolyline
90
2
70
128
38
0.0
39
0.0
10
3678.53427851409
20
241.148214528829
40
0.1
41
0.1
42
0.0
10
3678.53427851409
20
238.588214528829
40
0.1
41
0.1
42
0.0
210
0.0
220
0.0
230
1.0
0
LWPOLYLINE
5
A3
330
1C
100
AcDbEntity
67
0
8
markline
62
4
6
Continuous
370
-1
48
1.0
60
0
100
AcDbPolyline
90
2
70
128
38
0.0
39
0.0
10
3678.53427851409
20
241.148214528829
40
0.1
41
0.1
42
0.0
10
3678.53427851409
20
238.588214528829
40
0.1
41
0.1
42
0.0
210
0.0
220
0.0
230
1.0
0
LWPOLYLINE
5
A4
330
1C
100
AcDbEntity
67
0
8
markline
62
4
6
Continuous
370
-1
48
1.0
60
0
100
AcDbPolyline
90
2
70
128
38
0.0
39
0.0
10
3707.11427851409
20
241.148214528829
40
0.1
41
0.1
42
0.0
10
3707.11427851409
20
238.588214528829
40
0.1
41
0.1
42
0.0
210
0.0
220
0.0
230
1.0
0
LWPOLYLINE
5
A5
330
1C
100
AcDbEntity
67
0
8
markline
62
4
6
Continuous
370
-1
48
1.0
60
0
100
AcDbPolyline
90
2
70
128
38
0.0
39
0.0
10
3707.11427851409
20
241.148214528829
40
0.1
41
0.1
42
0.0
10
3707.11427851409
20
238.588214528829
40
0.1
41
0.1
42
0.0
210
0.0
220
0.0
230
1.0
0
LWPOLYLINE
5
A6
330
1C
100
AcDbEntity
67
0
8
markline
62
4
6
Continuous
370
-1
48
1.0
60
0
100
AcDbPolyline
90
2
70
128
38
0.0
39
0.0
10
3418.42427851409
20
241.148214528829
40
0.1
41
0.1
42
0.0
10
3418.42427851409
20
238.588214528829
40
0.1
41
0.1
42
0.0
210
0.0
220
0.0
230
1.0
0
LWPOLYLINE
5
A7
330
1C
100
AcDbEntity
67
0
8
markline
62
4
6
Continuous
370
-1
48
1.0
60
0
100
AcDbPolyline
90
2
70
128
38
0.0
39
0.0
10
3418.42427851409
20
241.148214528829
40
0.1
41
0.1
42
0.0
10
3418.42427851409
20
238.588214528829
40
0.1
41
0.1
42
0.0
210
0.0
220
0.0
230
1.0
0
LWPOLYLINE
5
A8
330
1C
100
AcDbEntity
67
0
8
markline
62
4
6
Continuous
370
-1
48
1.0
60
0
100
AcDbPolyline
90
2
70
128
38
0.0
39
0.0
10
3458.43427851409
20
241.148214528829
40
0.1
41
0.1
42
0.0
10
3458.43427851409
20
238.588214528829
40
0.1
41
0.1
42
0.0
210
0.0
220
0.0
230
1.0
0
LWPOLYLINE
5
A9
330
1C
100
AcDbEntity
67
0
8
markline
62
4
6
Continuous
370
-1
48
1.0
60
0
100
AcDbPolyline
90
2
70
128
38
0.0
39
0.0
10
3458.43427851409
20
241.148214528829
40
0.1
41
0.1
42
0.0
10
3458.43427851409
20
238.588214528829
40
0.1
41
0.1
42
0.0
210
0.0
220
0.0
230
1.0
0
LWPOLYLINE
5
AA
330
1C
100
AcDbEntity
67
0
8
markline
62
4
6
Continuous
370
-1
48
1.0
60
0
100
AcDbPolyline
90
2
70
128
38
0.0
39
0.0
10
3498.45427851409
20
241.148214528829
40
0.1
41
0.1
42
0.0
10
3498.45427851409
20
238.588214528829
40
0.1
41
0.1
42
0.0
210
0.0
220
0.0
230
1.0
0
LWPOLYLINE
5
AB
330
1C
100
AcDbEntity
67
0
8
markline
62
4
6
Continuous
370
-1
48
1.0
60
0
100
AcDbPolyline
90
2
70
128
38
0.0
39
0.0
10
3498.45427851409
20
241.148214528829
40
0.1
41
0.1
42
0.0
10
3498.45427851409
20
238.588214528829
40
0.1
41
0.1
42
0.0
210
0.0
220
0.0
230
1.0
0
LWPOLYLINE
5
AC
330
1C
100
AcDbEntity
67
0
8
markline
62
4
6
Continuous
370
-1
48
1.0
60
0
100
AcDbPolyline
90
2
70
128
38
0.0
39
0.0
10
3538.47427851409
20
241.148214528829
40
0.1
41
0.1
42
0.0
10
3538.47427851409
20
238.588214528829
40
0.1
41
0.1
42
0.0
210
0.0
220
0.0
230
1.0
0
LWPOLYLINE
5
AD
330
1C
100
AcDbEntity
67
0
8
markline
62
4
6
Continuous
370
-1
48
1.0
60
0
100
AcDbPolyline
90
2
70
128
38
0.0
39
0.0
10
3538.47427851409
20
241.148214528829
40
0.1
41
0.1
42
0.0
10
3538.47427851409
20
238.588214528829
40
0.1
41
0.1
42
0.0
210
0.0
220
0.0
230
1.0
0
LWPOLYLINE
5
AE
330
1C
100
AcDbEntity
67
0
8
markline
62
4
6
Continuous
370
-1
48
1.0
60
0
100
AcDbPolyline
90
5
70
128
38
0.0
39
0.0
10
3389.26427851409
20
201.108214528829
40
0.1
41
0.1
42
0.0
10
3394.98427851409
20
201.108214528829
40
0.1
41
0.1
42
0.0
10
3394.98427851409
20
201.968214528829
40
0.1
41
0.1
42
0.0
10
3396.12427851409
20
201.108214528829
40
0.1
41
0.1
42
0.0
10
3730.84427851409
20
201.108214528829
40
0.1
41
0.1
42
0.0
210
0.0
220
0.0
230
1.0
0
LWPOLYLINE
5
AF
330
1C
100
AcDbEntity
67
0
8
markline
62
4
6
Continuous
370
-1
48
1.0
60
0
100
AcDbPolyline
90
5
70
128
38
0.0
39
0.0
10
3389.26427851409
20
201.108214528829
40
0.1
41
0.1
42
0.0
10
3394.98427851409
20
201.108214528829
40
0.1
41
0.1
42
0.0
10
3394.98427851409
20
201.968214528829
40
0.1
41
0.1
42
0.0
10
3396.12427851409
20
201.108214528829
40
0.1
41
0.1
42
0.0
10
3730.84427851409
20
201.108214528829
40
0.1
41
0.1
42
0.0
210
0.0
220
0.0
230
1.0
0
LWPOLYLINE
5
B0
330
1C
100
AcDbEntity
67
0
8
markline
62
4
6
Continuous
370
-1
48
1.0
60
0
100
AcDbPolyline
90
5
70
128
38
0.0
39
0.0
10
3389.26427851409
20
201.108214528829
40
0.1
41
0.1
42
0.0
10
3394.98427851409
20
201.108214528829
40
0.1
41
0.1
42
0.0
10
3394.98427851409
20
201.968214528829
40
0.1
41
0.1
42
0.0
10
3396.12427851409
20
201.108214528829
40
0.1
41
0.1
42
0.0
10
3730.84427851409
20
201.108214528829
40
0.1
41
0.1
42
0.0
210
0.0
220
0.0
230
1.0
0
LWPOLYLINE
5
B1
330
1C
100
AcDbEntity
67
0
8
markline
62
4
6
Continuous
370
-1
48
1.0
60
0
100
AcDbPolyline
90
5
70
128
38
0.0
39
0.0
10
3389.26427851409
20
201.108214528829
40
0.1
41
0.1
42
0.0
10
3394.98427851409
20
201.108214528829
40
0.1
41
0.1
42
0.0
10
3394.98427851409
20
201.968214528829
40
0.1
41
0.1
42
0.0
10
3396.12427851409
20
201.108214528829
40
0.1
41
0.1
42
0.0
10
3730.84427851409
20
201.108214528829
40
0.1
41
0.1
42
0.0
210
0.0
220
0.0
230
1.0
0
LWPOLYLINE
5
B2
330
1C
100
AcDbEntity
67
0
8
markline
62
4
6
Continuous
370
-1
48
1.0
60
0
100
AcDbPolyline
90
5
70
128
38
0.0
39
0.0
10
3389.26427851409
20
201.108214528829
40
0.1
41
0.1
42
0.0
10
3394.98427851409
20
201.108214528829
40
0.1
41
0.1
42
0.0
10
3394.98427851409
20
201.968214528829
40
0.1
41
0.1
42
0.0
10
3396.12427851409
20
201.108214528829
40
0.1
41
0.1
42
0.0
10
3730.84427851409
20
201.108214528829
40
0.1
41
0.1
42
0.0
210
0.0
220
0.0
230
1.0
0
LWPOLYLINE
5
B3
330
1C
100
AcDbEntity
67
0
8
markline
62
4
6
Continuous
370
-1
48
1.0
60
0
100
AcDbPolyline
90
5
70
128
38
0.0
39
0.0
10
3389.26427851409
20
219.688214528829
40
0.1
41
0.1
42
0.0
10
3394.98427851409
20
219.688214528829
40
0.1
41
0.1
42
0.0
10
3394.98427851409
20
220.548214528829
40
0.1
41
0.1
42
0.0
10
3396.12427851409
20
219.688214528829
40
0.1
41
0.1
42
0.0
10
3730.84427851409
20
219.688214528829
40
0.1
41
0.1
42
0.0
210
0.0
220
0.0
230
1.0
0
LWPOLYLINE
5
B4
330
1C
100
AcDbEntity
67
0
8
markline
62
4
6
Continuous
370
-1
48
1.0
60
0
100
AcDbPolyline
90
5
70
128
38
0.0
39
0.0
10
3389.26427851409
20
219.688214528829
40
0.1
41
0.1
42
0.0
10
3394.98427851409
20
219.688214528829
40
0.1
41
0.1
42
0.0
10
3394.98427851409
20
220.548214528829
40
0.1
41
0.1
42
0.0
10
3396.12427851409
20
219.688214528829
40
0.1
41
0.1
42
0.0
10
3730.84427851409
20
219.688214528829
40
0.1
41
0.1
42
0.0
210
0.0
220
0.0
230
1.0
0
LWPOLYLINE
5
B5
330
1C
100
AcDbEntity
67
0
8
markline
62
4
6
Continuous
370
-1
48
1.0
60
0
100
AcDbPolyline
90
5
70
128
38
0.0
39
0.0
10
3389.26427851409
20
219.688214528829
40
0.1
41
0.1
42
0.0
10
3394.98427851409
20
219.688214528829
40
0.1
41
0.1
42
0.0
10
3394.98427851409
20
220.548214528829
40
0.1
41
0.1
42
0.0
10
3396.12427851409
20
219.688214528829
40
0.1
41
0.1
42
0.0
10
3730.84427851409
20
219.688214528829
40
0.1
41
0.1
42
0.0
210
0.0
220
0.0
230
1.0
0
LWPOLYLINE
5
B6
330
1C
100
AcDbEntity
67
0
8
markline
62
4
6
Continuous
370
-1
48
1.0
60
0
100
AcDbPolyline
90
5
70
128
38
0.0
39
0.0
10
3389.26427851409
20
219.688214528829
40
0.1
41
0.1
42
0.0
10
3394.98427851409
20
219.688214528829
40
0.1
41
0.1
42
0.0
10
3394.98427851409
20
220.548214528829
40
0.1
41
0.1
42
0.0
10
3396.12427851409
20
219.688214528829
40
0.1
41
0.1
42
0.0
10
3730.84427851409
20
219.688214528829
40
0.1
41
0.1
42
0.0
210
0.0
220
0.0
230
1.0
0
LWPOLYLINE
5
B7
330
1C
100
AcDbEntity
67
0
8
markline
62
4
6
Continuous
370
-1
48
1.0
60
0
100
AcDbPolyline
90
5
70
128
38
0.0
39
0.0
10
3389.26427851409
20
219.688214528829
40
0.1
41
0.1
42
0.0
10
3394.98427851409
20
219.688214528829
40
0.1
41
0.1
42
0.0
10
3394.98427851409
20
220.548214528829
40
0.1
41
0.1
42
0.0
10
3396.12427851409
20
219.688214528829
40
0.1
41
0.1
42
0.0
10
3730.84427851409
20
219.688214528829
40
0.1
41
0.1
42
0.0
210
0.0
220
0.0
230
1.0
0
LWPOLYLINE
5
B8
330
1C
100
AcDbEntity
67
0
8
spdCmdManufTaoliaoGnDraw
62
7
6
Continuous
370
-1
48
1.0
60
0
100
AcDbPolyline
90
4
70
129
38
0.0
39
0.0
10
3661.84427851409
20
187.828214528829
40
0.1
41
0.1
42
0.0
10
3731.84427851409
20
187.828214528829
40
0.1
41
0.1
42
0.0
10
3731.84427851409
20
180.828214528829
40
0.1
41
0.1
42
0.0
10
3661.84427851409
20
180.828214528829
40
0.1
41
0.1
42
0.0
210
0.0
220
0.0
230
1.0
0
LWPOLYLINE
5
B9
330
1C
100
AcDbEntity
67
0
8
spdCmdManufTaoliaoGnDraw
62
7
6
Continuous
370
-1
48
1.0
60
0
100
AcDbPolyline
90
4
70
129
38
0.0
39
0.0
10
3661.84427851409
20
187.828214528829
40
0.1
41
0.1
42
0.0
10
3731.84427851409
20
187.828214528829
40
0.1
41
0.1
42
0.0
10
3731.84427851409
20
180.828214528829
40
0.1
41
0.1
42
0.0
10
3661.84427851409
20
180.828214528829
40
0.1
41
0.1
42
0.0
210
0.0
220
0.0
230
1.0
0
LWPOLYLINE
5
BA
330
1C
100
AcDbEntity
67
0
8
spdCmdManufTaoliaoGnDraw
62
7
6
Continuous
370
-1
48
1.0
60
0
100
AcDbPolyline
90
4
70
129
38
0.0
39
0.0
10
3661.84427851409
20
187.828214528829
40
0.1
41
0.1
42
0.0
10
3731.84427851409
20
187.828214528829
40
0.1
41
0.1
42
0.0
10
3731.84427851409
20
180.828214528829
40
0.1
41
0.1
42
0.0
10
3661.84427851409
20
180.828214528829
40
0.1
41
0.1
42
0.0
210
0.0
220
0.0
230
1.0
0
LWPOLYLINE
5
BB
330
1C
100
AcDbEntity
67
0
8
spdCmdManufTaoliaoGnDraw
62
7
6
Continuous
370
-1
48
1.0
60
0
100
AcDbPolyline
90
4
70
129
38
0.0
39
0.0
10
3661.84427851409
20
187.828214528829
40
0.1
41
0.1
42
0.0
10
3731.84427851409
20
187.828214528829
40
0.1
41
0.1
42
0.0
10
3731.84427851409
20
180.828214528829
40
0.1
41
0.1
42
0.0
10
3661.84427851409
20
180.828214528829
40
0.1
41
0.1
42
0.0
210
0.0
220
0.0
230
1.0
0
LWPOLYLINE
5
BC
330
1C
100
AcDbEntity
67
0
8
spdCmdManufTaoliaoGnDraw
62
3
6
Continuous
370
-1
48
1.0
60
0
100
AcDbPolyline
90
4
70
129
38
0.0
39
0.0
10
3388.98427851409
20
190.828214528829
40
0.1
41
0.1
42
0.0
10
3731.84427851409
20
190.828214528829
40
0.1
41
0.1
42
0.0
10
3731.84427851409
20
242.258214528829
40
0.1
41
0.1
42
0.0
10
3388.98427851409
20
242.258214528829
40
0.1
41
0.1
42
0.0
210
0.0
220
0.0
230
1.0
0
LWPOLYLINE
5
BD
330
1C
100
AcDbEntity
67
0
8
spdCmdManufTaoliaoGnDraw
62
3
6
Continuous
370
-1
48
1.0
60
0
100
AcDbPolyline
90
4
70
129
38
0.0
39
0.0
10
3388.98427851409
20
190.828214528829
40
0.1
41
0.1
42
0.0
10
3731.84427851409
20
190.828214528829
40
0.1
41
0.1
42
0.0
10
3731.84427851409
20
242.258214528829
40
0.1
41
0.1
42
0.0
10
3388.98427851409
20
242.258214528829
40
0.1
41
0.1
42
0.0
210
0.0
220
0.0
230
1.0
0
LWPOLYLINE
5
BE
330
1C
100
AcDbEntity
67
0
8
spdCmdManufTaoliaoGnDraw
62
3
6
Continuous
370
-1
48
1.0
60
0
100
AcDbPolyline
90
4
70
129
38
0.0
39
0.0
10
3388.98427851409
20
190.828214528829
40
0.1
41
0.1
42
0.0
10
3731.84427851409
20
190.828214528829
40
0.1
41
0.1
42
0.0
10
3731.84427851409
20
242.258214528829
40
0.1
41
0.1
42
0.0
10
3388.98427851409
20
242.258214528829
40
0.1
41
0.1
42
0.0
210
0.0
220
0.0
230
1.0
0
LWPOLYLINE
5
BF
330
1C
100
AcDbEntity
67
0
8
spdCmdManufTaoliaoGnDraw
62
3
6
Continuous
370
-1
48
1.0
60
0
100
AcDbPolyline
90
4
70
129
38
0.0
39
0.0
10
3388.98427851409
20
190.828214528829
40
0.1
41
0.1
42
0.0
10
3731.84427851409
20
190.828214528829
40
0.1
41
0.1
42
0.0
10
3731.84427851409
20
242.258214528829
40
0.1
41
0.1
42
0.0
10
3388.98427851409
20
242.258214528829
40
0.1
41
0.1
42
0.0
210
0.0
220
0.0
230
1.0
0
TEXT
5
C0
330
1C
100
AcDbEntity
67
0
8
spdCmdManufTaoliaoGnDraw
62
7
6
ByLayer
370
-1
48
1.0
60
0
100
AcDbText
1
No.
10
3384.65217851409
20
21.7582145288288
30
0.0
40
3.0
41
0.75
50
0.0
51
0.0
7
Standard
11
3384.65217851409
21
21.7582145288288
31
0.0
210
0.0
220
0.0
230
1.0
71
0
72
0
100
AcDbText
73
0
0
TEXT
5
C1
330
1C
100
AcDbEntity
67
0
8
spdCmdManufTaoliaoGnDraw
62
7
6
ByLayer
370
-1
48
1.0
60
0
100
AcDbText
1
\U+96F6\U+4EF6\U+53F7
10
3399.32007851409
20
21.7582145288288
30
0.0
40
3.0
41
0.75
50
0.0
51
0.0
7
Standard
11
3399.32007851409
21
21.7582145288288
31
0.0
210
0.0
220
0.0
230
1.0
71
0
72
0
100
AcDbText
73
0
0
TEXT
5
C2
330
1C
100
AcDbEntity
67
0
8
spdCmdManufTaoliaoGnDraw
62
7
6
ByLayer
370
-1
48
1.0
60
0
100
AcDbText
1
\U+5C3A\U+5BF8
10
3423.87477851409
20
21.7582145288288
30
0.0
40
3.0
41
0.75
50
0.0
51
0.0
7
Standard
11
3423.87477851409
21
21.7582145288288
31
0.0
210
0.0
220
0.0
230
1.0
71
0
72
0
100
AcDbText
73
0
0
TEXT
5
C3
330
1C
100
AcDbEntity
67
0
8
spdCmdManufTaoliaoGnDraw
62
7
6
ByLayer
370
-1
48
1.0
60
0
100
AcDbText
1
\U+7D2F\U+8BA1\U+957F
10
3438.32007851409
20
21.7582145288288
30
0.0
40
3.0
41
0.75
50
0.0
51
0.0
7
Standard
11
3438.32007851409
21
21.7582145288288
31
0.0
210
0.0
220
0.0
230
1.0
71
0
72
0
100
AcDbText
73
0
0
TEXT
5
C4
330
1C
100
AcDbEntity
67
0
8
spdCmdManufTaoliaoGnDraw
62
7
6
ByLayer
370
-1
48
1.0
60
0
100
AcDbText
1
\U+52A0\U+5DE5\U+7801/\U+6D41\U+5411
10
3446.93317851409
20
21.7582145288288
30
0.0
40
3.0
41
0.75
50
0.0
51
0.0
7
Standard
11
3446.93317851409
21
21.7582145288288
31
0.0
210
0.0
220
0.0
230
1.0
71
0
72
0
100
AcDbText
73
0
0
TEXT
5
C5
330
1C
100
AcDbEntity
67
0
8
spdCmdManufTaoliaoGnDraw
62
7
6
ByLayer
370
-1
48
1.0
60
0
100
AcDbText
1
\U+5206\U+9053
10
3465.87477851409
20
21.7582145288288
30
0.0
40
3.0
41
0.75
50
0.0
51
0.0
7
Standard
11
3465.87477851409
21
21.7582145288288
31
0.0
210
0.0
220
0.0
230
1.0
71
0
72
0
100
AcDbText
73
0
0
TEXT
5
C6
330
1C
100
AcDbEntity
67
0
8
spdCmdManufTaoliaoGnDraw
62
7
6
ByLayer
370
-1
48
1.0
60
0
100
AcDbText
1
No.
10
3477.65227851409
20
21.7582145288288
30
0.0
40
3.0
41
0.75
50
0.0
51
0.0
7
Standard
11
3477.65227851409
21
21.7582145288288
31
0.0
210
0.0
220
0.0
230
1.0
71
0
72
0
100
AcDbText
73
0
0
TEXT
5
C7
330
1C
100
AcDbEntity
67
0
8
spdCmdManufTaoliaoGnDraw
62
7
6
ByLayer
370
-1
48
1.0
60
0
100
AcDbText
1
\U+96F6\U+4EF6\U+53F7
10
3492.32027851409
20
21.7582145288288
30
0.0
40
3.0
41
0.75
50
0.0
51
0.0
7
Standard
11
3492.32027851409
21
21.7582145288288
31
0.0
210
0.0
220
0.0
230
1.0
71
0
72
0
100
AcDbText
73
0
0
TEXT
5
C8
330
1C
100
AcDbEntity
67
0
8
spdCmdManufTaoliaoGnDraw
62
7
6
ByLayer
370
-1
48
1.0
60
0
100
AcDbText
1
\U+5C3A\U+5BF8
10
3516.87527851409
20
21.7582145288288
30
0.0
40
3.0
41
0.75
50
0.0
51
0.0
7
Standard
11
3516.87527851409
21
21.7582145288288
31
0.0
210
0.0
220
0.0
230
1.0
71
0
72
0
100
AcDbText
73
0
0
TEXT
5
C9
330
1C
100
AcDbEntity
67
0
8
spdCmdManufTaoliaoGnDraw
62
7
6
ByLayer
370
-1
48
1.0
60
0
100
AcDbText
1
\U+7D2F\U+8BA1\U+957F
10
3531.32027851409
20
21.7582145288288
30
0.0
40
3.0
41
0.75
50
0.0
51
0.0
7
Standard
11
3531.32027851409
21
21.7582145288288
31
0.0
210
0.0
220
0.0
230
1.0
71
0
72
0
100
AcDbText
73
0
0
TEXT
5
CA
330
1C
100
AcDbEntity
67
0
8
spdCmdManufTaoliaoGnDraw
62
7
6
ByLayer
370
-1
48
1.0
60
0
100
AcDbText
1
\U+52A0\U+5DE5\U+7801/\U+6D41\U+5411
10
3539.93327851409
20
21.7582145288288
30
0.0
40
3.0
41
0.75
50
0.0
51
0.0
7
Standard
11
3539.93327851409
21
21.7582145288288
31
0.0
210
0.0
220
0.0
230
1.0
71
0
72
0
100
AcDbText
73
0
0
TEXT
5
CB
330
1C
100
AcDbEntity
67
0
8
spdCmdManufTaoliaoGnDraw
62
7
6
ByLayer
370
-1
48
1.0
60
0
100
AcDbText
1
\U+5206\U+9053
10
3558.87527851409
20
21.7582145288288
30
0.0
40
3.0
41
0.75
50
0.0
51
0.0
7
Standard
11
3558.87527851409
21
21.7582145288288
31
0.0
210
0.0
220
0.0
230
1.0
71
0
72
0
100
AcDbText
73
0
0
TEXT
5
CC
330
1C
100
AcDbEntity
67
0
8
spdCmdManufTaoliaoGnDraw
62
7
6
ByLayer
370
-1
48
1.0
60
0
100
AcDbText
1
No.
10
3570.65227851409
20
21.7582145288288
30
0.0
40
3.0
41
0.75
50
0.0
51
0.0
7
Standard
11
3570.65227851409
21
21.7582145288288
31
0.0
210
0.0
220
0.0
230
1.0
71
0
72
0
100
AcDbText
73
0
0
TEXT
5
CD
330
1C
100
AcDbEntity
67
0
8
spdCmdManufTaoliaoGnDraw
62
7
6
ByLayer
370
-1
48
1.0
60
0
100
AcDbText
1
\U+96F6\U+4EF6\U+53F7
10
3585.32027851409
20
21.7582145288288
30
0.0
40
3.0
41
0.75
50
0.0
51
0.0
7
Standard
11
3585.32027851409
21
21.7582145288288
31
0.0
210
0.0
220
0.0
230
1.0
71
0
72
0
100
AcDbText
73
0
0
TEXT
5
CE
330
1C
100
AcDbEntity
67
0
8
spdCmdManufTaoliaoGnDraw
62
7
6
ByLayer
370
-1
48
1.0
60
0
100
AcDbText
1
\U+5C3A\U+5BF8
10
3609.87527851409
20
21.7582145288288
30
0.0
40
3.0
41
0.75
50
0.0
51
0.0
7
Standard
11
3609.87527851409
21
21.7582145288288
31
0.0
210
0.0
220
0.0
230
1.0
71
0
72
0
100
AcDbText
73
0
0
TEXT
5
CF
330
1C
100
AcDbEntity
67
0
8
spdCmdManufTaoliaoGnDraw
62
7
6
ByLayer
370
-1
48
1.0
60
0
100
AcDbText
1
\U+7D2F\U+8BA1\U+957F
10
3624.32027851409
20
21.7582145288288
30
0.0
40
3.0
41
0.75
50
0.0
51
0.0
7
Standard
11
3624.32027851409
21
21.7582145288288
31
0.0
210
0.0
220
0.0
230
1.0
71
0
72
0
100
AcDbText
73
0
0
TEXT
5
D0
330
1C
100
AcDbEntity
67
0
8
spdCmdManufTaoliaoGnDraw
62
7
6
ByLayer
370
-1
48
1.0
60
0
100
AcDbText
1
\U+52A0\U+5DE5\U+7801/\U+6D41\U+5411
10
3632.93327851409
20
21.7582145288288
30
0.0
40
3.0
41
0.75
50
0.0
51
0.0
7
Standard
11
3632.93327851409
21
21.7582145288288
31
0.0
210
0.0
220
0.0
230
1.0
71
0
72
0
100
AcDbText
73
0
0
TEXT
5
D1
330
1C
100
AcDbEntity
67
0
8
spdCmdManufTaoliaoGnDraw
62
7
6
ByLayer
370
-1
48
1.0
60
0
100
AcDbText
1
\U+5206\U+9053
10
3651.87427851409
20
21.7582145288288
30
0.0
40
3.0
41
0.75
50
0.0
51
0.0
7
Standard
11
3651.87427851409
21
21.7582145288288
31
0.0
210
0.0
220
0.0
230
1.0
71
0
72
0
100
AcDbText
73
0
0
TEXT
5
D2
330
1C
100
AcDbEntity
67
0
8
spdCmdManufTaoliaoGnDraw
62
7
6
ByLayer
370
-1
48
1.0
60
0
100
AcDbText
1
No.
10
3663.65227851409
20
21.7582145288288
30
0.0
40
3.0
41
0.75
50
0.0
51
0.0
7
Standard
11
3663.65227851409
21
21.7582145288288
31
0.0
210
0.0
220
0.0
230
1.0
71
0
72
0
100
AcDbText
73
0
0
TEXT
5
D3
330
1C
100
AcDbEntity
67
0
8
spdCmdManufTaoliaoGnDraw
62
7
6
ByLayer
370
-1
48
1.0
60
0
100
AcDbText
1
\U+96F6\U+4EF6\U+53F7
10
3678.32027851409
20
21.7582145288288
30
0.0
40
3.0
41
0.75
50
0.0
51
0.0
7
Standard
11
3678.32027851409
21
21.7582145288288
31
0.0
210
0.0
220
0.0
230
1.0
71
0
72
0
100
AcDbText
73
0
0
TEXT
5
D4
330
1C
100
AcDbEntity
67
0
8
spdCmdManufTaoliaoGnDraw
62
7
6
ByLayer
370
-1
48
1.0
60
0
100
AcDbText
1
\U+5C3A\U+5BF8
10
3702.87427851409
20
21.7582145288288
30
0.0
40
3.0
41
0.75
50
0.0
51
0.0
7
Standard
11
3702.87427851409
21
21.7582145288288
31
0.0
210
0.0
220
0.0
230
1.0
71
0
72
0
100
AcDbText
73
0
0
TEXT
5
D5
330
1C
100
AcDbEntity
67
0
8
spdCmdManufTaoliaoGnDraw
62
7
6
ByLayer
370
-1
48
1.0
60
0
100
AcDbText
1
\U+7D2F\U+8BA1\U+957F
10
3717.32027851409
20
21.7582145288288
30
0.0
40
3.0
41
0.75
50
0.0
51
0.0
7
Standard
11
3717.32027851409
21
21.7582145288288
31
0.0
210
0.0
220
0.0
230
1.0
71
0
72
0
100
AcDbText
73
0
0
TEXT
5
D6
330
1C
100
AcDbEntity
67
0
8
spdCmdManufTaoliaoGnDraw
62
7
6
ByLayer
370
-1
48
1.0
60
0
100
AcDbText
1
\U+52A0\U+5DE5\U+7801/\U+6D41\U+5411
10
3725.93327851409
20
21.7582145288288
30
0.0
40
3.0
41
0.75
50
0.0
51
0.0
7
Standard
11
3725.93327851409
21
21.7582145288288
31
0.0
210
0.0
220
0.0
230
1.0
71
0
72
0
100
AcDbText
73
0
0
TEXT
5
D7
330
1C
100
AcDbEntity
67
0
8
spdCmdManufTaoliaoGnDraw
62
7
6
ByLayer
370
-1
48
1.0
60
0
100
AcDbText
1
\U+5206\U+9053
10
3744.87427851409
20
21.7582145288288
30
0.0
40
3.0
41
0.75
50
0.0
51
0.0
7
Standard
11
3744.87427851409
21
21.7582145288288
31
0.0
210
0.0
220
0.0
230
1.0
71
0
72
0
100
AcDbText
73
0
0
TEXT
5
D8
330
1C
100
AcDbEntity
67
0
8
spdCmdManufTaoliaoGnDraw
62
7
6
ByLayer
370
-1
48
1.0
60
0
100
AcDbText
1
\U+9875\U+7801
10
3709.83827851409
20
273.258214528829
30
0.0
40
4.0
41
0.75
50
0.0
51
0.0
7
Standard
11
3709.83827851409
21
273.258214528829
31
0.0
210
0.0
220
0.0
230
1.0
71
0
72
0
100
AcDbText
73
0
0
TEXT
5
D9
330
1C
100
AcDbEntity
67
0
8
spdCmdManufTaoliaoGnDraw
62
7
6
ByLayer
370
-1
48
1.0
60
0
100
AcDbText
1
\U+5957\U+6599\U+677F\U+53F7
10
3705.69227851409
20
265.258214528829
30
0.0
40
4.0
41
0.75
50
0.0
51
0.0
7
Standard
11
3705.69227851409
21
265.258214528829
31
0.0
210
0.0
220
0.0
230
1.0
71
0
72
0
100
AcDbText
73
0
0
TEXT
5
DA
330
1C
100
AcDbEntity
67
0
8
spdCmdManufTaoliaoGnDraw
62
7
6
ByLayer
370
-1
48
1.0
60
0
100
AcDbText
1
\U+4E0B\U+6599\U+4F9D\U+636E
10
3705.69227851409
20
257.258214528829
30
0.0
40
4.0
41
0.75
50
0.0
51
0.0
7
Standard
11
3705.69227851409
21
257.258214528829
31
0.0
210
0.0
220
0.0
230
1.0
71
0
72
0
100
AcDbText
73
0
0
TEXT
5
DB
330
1C
100
AcDbEntity
67
0
8
spdCmdManufTaoliaoGnDraw
62
7
6
ByLayer
370
-1
48
1.0
60
0
100
AcDbText
1
\U+5206\U+9053
10
3709.83827851409
20
249.258214528829
30
0.0
40
4.0
41
0.75
50
0.0
51
0.0
7
Standard
11
3709.83827851409
21
249.258214528829
31
0.0
210
0.0
220
0.0
230
1.0
71
0
72
0
100
AcDbText
73
0
0
TEXT
5
DC
330
1C
100
AcDbEntity
67
0
8
spdCmdManufTaoliaoGnDraw
62
7
6
ByLayer
370
-1
48
1.0
60
0
100
AcDbText
1
\U+56FE\U+53F7
10
3653.83827851409
20
273.258214528829
30
0.0
40
4.0
41
0.75
50
0.0
51
0.0
7
Standard
11
3653.83827851409
21
273.258214528829
31
0.0
210
0.0
220
0.0
230
1.0
71
0
72
0
100
AcDbText
73
0
0
TEXT
5
DD
330
1C
100
AcDbEntity
67
0
8
spdCmdManufTaoliaoGnDraw
62
7
6
ByLayer
370
-1
48
1.0
60
0
100
AcDbText
1
\U+5229\U+7528\U+7387
10
3651.76527851409
20
265.258214528829
30
0.0
40
4.0
41
0.75
50
0.0
51
0.0
7
Standard
11
3651.76527851409
21
265.258214528829
31
0.0
210
0.0
220
0.0
230
1.0
71
0
72
0
100
AcDbText
73
0
0
TEXT
5
DE
330
1C
100
AcDbEntity
67
0
8
spdCmdManufTaoliaoGnDraw
62
7
6
ByLayer
370
-1
48
1.0
60
0
100
AcDbText
1
\U+5957\U+6599\U+5DE5\U+4F5C\U+8005
10
3647.61927851409
20
257.258214528829
30
0.0
40
4.0
41
0.75
50
0.0
51
0.0
7
Standard
11
3647.61927851409
21
257.258214528829
31
0.0
210
0.0
220
0.0
230
1.0
71
0
72
0
100
AcDbText
73
0
0
TEXT
5
DF
330
1C
100
AcDbEntity
67
0
8
spdCmdManufTaoliaoGnDraw
62
7
6
ByLayer
370
-1
48
1.0
60
0
100
AcDbText
1
\U+94A2\U+6750\U+6750\U+8D28
10
3649.69227851409
20
249.258214528829
30
0.0
40
4.0
41
0.75
50
0.0
51
0.0
7
Standard
11
3649.69227851409
21
249.258214528829
31
0.0
210
0.0
220
0.0
230
1.0
71
0
72
0
100
AcDbText
73
0
0
TEXT
5
E0
330
1C
100
AcDbEntity
67
0
8
spdCmdManufTaoliaoGnDraw
62
7
6
ByLayer
370
-1
48
1.0
60
0
100
AcDbText
1
\U+81EA\U+68C0\U+957F\U+5BBD
10
3599.69227851409
20
273.258214528829
30
0.0
40
4.0
41
0.75
50
0.0
51
0.0
7
Standard
11
3599.69227851409
21
273.258214528829
31
0.0
210
0.0
220
0.0
230
1.0
71
0
72
0
100
AcDbText
73
0
0
TEXT
5
E1
330
1C
100
AcDbEntity
67
0
8
spdCmdManufTaoliaoGnDraw
62
7
6
ByLayer
370
-1
48
1.0
60
0
100
AcDbText
1
\U+5957\U+6599\U+5B8C\U+6210\U+65E5\U+671F
10
3595.54627851409
20
265.258214528829
30
0.0
40
4.0
41
0.75
50
0.0
51
0.0
7
Standard
11
3595.54627851409
21
265.258214528829
31
0.0
210
0.0
220
0.0
230
1.0
71
0
72
0
100
AcDbText
73
0
0
TEXT
5
E2
330
1C
100
AcDbEntity
67
0
8
spdCmdManufTaoliaoGnDraw
62
7
6
ByLayer
370
-1
48
1.0
60
0
100
AcDbText
1
\U+5212\U+7EBF\U+957F\U+5EA6
10
3599.69227851409
20
257.258214528829
30
0.0
40
4.0
41
0.75
50
0.0
51
0.0
7
Standard
11
3599.69227851409
21
257.258214528829
31
0.0
210
0.0
220
0.0
230
1.0
71
0
72
0
100
AcDbText
73
0
0
TEXT
5
E3
330
1C
100
AcDbEntity
67
0
8
spdCmdManufTaoliaoGnDraw
62
7
6
ByLayer
370
-1
48
1.0
60
0
100
AcDbText
1
\U+6570\U+91CF
10
3603.83827851409
20
249.258214528829
30
0.0
40
4.0
41
0.75
50
0.0
51
0.0
7
Standard
11
3603.83827851409
21
249.258214528829
31
0.0
210
0.0
220
0.0
230
1.0
71
0
72
0
100
AcDbText
73
0
0
TEXT
5
E4
330
1C
100
AcDbEntity
67
0
8
spdCmdManufTaoliaoGnDraw
62
7
6
ByLayer
370
-1
48
1.0
60
0
100
AcDbText
1
\U+5207\U+5272\U+5DE5\U+4F5C\U+8005
10
3535.61927851409
20
273.258214528829
30
0.0
40
4.0
41
0.75
50
0.0
51
0.0
7
Standard
11
3535.61927851409
21
273.258214528829
31
0.0
210
0.0
220
0.0
230
1.0
71
0
72
0
100
AcDbText
73
0
0
TEXT
5
E5
330
1C
100
AcDbEntity
67
0
8
spdCmdManufTaoliaoGnDraw
62
7
6
ByLayer
370
-1
48
1.0
60
0
100
AcDbText
1
\U+5B8C\U+5DE5\U+65E5\U+671F
10
3537.69227851409
20
265.258214528829
30
0.0
40
4.0
41
0.75
50
0.0
51
0.0
7
Standard
11
3537.69227851409
21
265.258214528829
31
0.0
210
0.0
220
0.0
230
1.0
71
0
72
0
100
AcDbText
73
0
0
TEXT
5
E6
330
1C
100
AcDbEntity
67
0
8
spdCmdManufTaoliaoGnDraw
62
7
6
ByLayer
370
-1
48
1.0
60
0
100
AcDbText
1
\U+5207\U+5272\U+957F\U+5EA6
10
3537.69227851409
20
257.258214528829
30
0.0
40
4.0
41
0.75
50
0.0
51
0.0
7
Standard
11
3537.69227851409
21
257.258214528829
31
0.0
210
0.0
220
0.0
230
1.0
71
0
72
0
100
AcDbText
73
0
0
TEXT
5
E7
330
1C
100
AcDbEntity
67
0
8
spdCmdManufTaoliaoGnDraw
62
7
6
ByLayer
370
-1
48
1.0
60
0
100
AcDbText
1
\U+94A2\U+6750\U+89C4\U+683C
10
3537.69227851409
20
249.258214528829
30
0.0
40
4.0
41
0.75
50
0.0
51
0.0
7
Standard
11
3537.69227851409
21
249.258214528829
31
0.0
210
0.0
220
0.0
230
1.0
71
0
72
0
100
AcDbText
73
0
0
TEXT
5
E8
330
1C
100
AcDbEntity
67
0
8
spdCmdManufTaoliaoGnDraw
62
7
6
ByLayer
370
-1
48
1.0
60
0
100
AcDbText
1
\U+94A2\U+6750\U+7089\U+6279\U+53F7
10
3479.61927851409
20
273.258214528829
30
0.0
40
4.0
41
0.75
50
0.0
51
0.0
7
Standard
11
3479.61927851409
21
273.258214528829
31
0.0
210
0.0
220
0.0
230
1.0
71
0
72
0
100
AcDbText
73
0
0
TEXT
5
E9
330
1C
100
AcDbEntity
67
0
8
spdCmdManufTaoliaoGnDraw
62
7
6
ByLayer
370
-1
48
1.0
60
0
100
AcDbText
1
\U+8239\U+7EA7\U+793E
10
3483.76527851409
20
265.258214528829
30
0.0
40
4.0
41
0.75
50
0.0
51
0.0
7
Standard
11
3483.76527851409
21
265.258214528829
31
0.0
210
0.0
220
0.0
230
1.0
71
0
72
0
100
AcDbText
73
0
0
TEXT
5
EA
330
1C
100
AcDbEntity
67
0
8
spdCmdManufTaoliaoGnDraw
62
7
6
ByLayer
370
-1
48
1.0
60
0
100
AcDbText
1
\U+7269\U+8D44\U+7801
10
3483.76527851409
20
257.258214528829
30
0.0
40
4.0
41
0.75
50
0.0
51
0.0
7
Standard
11
3483.76527851409
21
257.258214528829
31
0.0
210
0.0
220
0.0
230
1.0
71
0
72
0
100
AcDbText
73
0
0
TEXT
5
EB
330
1C
100
AcDbEntity
67
0
8
spdCmdManufTaoliaoGnDraw
62
7
6
ByLayer
370
-1
48
1.0
60
0
100
AcDbText
1
\U+5957\U+6599\U+6BD4\U+4F8B
10
3481.69227851409
20
249.258214528829
30
0.0
40
4.0
41
0.75
50
0.0
51
0.0
7
Standard
11
3481.69227851409
21
249.258214528829
31
0.0
210
0.0
220
0.0
230
1.0
71
0
72
0
100
AcDbText
73
0
0
TEXT
5
EC
330
1C
100
AcDbEntity
67
0
8
spdCmdManufTaoliaoGnDraw
62
7
6
ByLayer
370
-1
48
1.0
60
0
100
AcDbText
1
\U+4EA7\U+54C1
10
3386.83827851409
20
249.258214528829
30
0.0
40
4.0
41
0.75
50
0.0
51
0.0
7
Standard
11
3386.83827851409
21
249.258214528829
31
0.0
210
0.0
220
0.0
230
1.0
71
0
72
0
100
AcDbText
73
0
0
TEXT
5
ED
330
1C
100
AcDbEntity
67
0
8
spdCmdManufTaoliaoGnDraw
62
7
6
ByLayer
370
-1
48
1.0
60
0
100
AcDbText
1
\U+62DB\U+5546\U+91D1\U+9675\U+FF08\U+626C\U+5DDE\U+FF09
10
3407.43007851409
20
264.258214528829
30
0.0
40
6.0
41
0.68
50
0.0
51
0.0
7
Standard
11
3407.43007851409
21
264.258214528829
31
0.0
210
0.0
220
0.0
230
1.0
71
0
72
0
100
AcDbText
73
0
0
TEXT
5
EE
330
1C
100
AcDbEntity
67
0
8
spdCmdManufTaoliaoGnDraw
62
7
6
ByLayer
370
-1
48
1.0
60
0
100
AcDbText
1
JG \U+541B\U+6B6325900DWT
10
3421.43677851409
20
249.258214528829
30
0.0
40
4.0
41
0.75
50
0.0
51
0.0
7
Standard
11
3421.43677851409
21
249.258214528829
31
0.0
210
0.0
220
0.0
230
1.0
71
0
72
0
100
AcDbText
73
0
0
TEXT
5
EF
330
1C
100
AcDbEntity
67
0
8
spdCmdManufTaoliaoGnDraw
62
7
6
ByLayer
370
-1
48
1.0
60
0
100
AcDbText
1
1:35
10
3513.83827851409
20
249.258214528829
30
0.0
40
4.0
41
0.75
50
0.0
51
0.0
7
Standard
11
3513.83827851409
21
249.258214528829
31
0.0
210
0.0
220
0.0
230
1.0
71
0
72
0
100
AcDbText
73
0
0
TEXT
5
F0
330
1C
100
AcDbEntity
67
0
8
spdCmdManufTaoliaoGnDraw
62
7
6
ByLayer
370
-1
48
1.0
60
0
100
AcDbText
1
12*1800*12000
10
3563.50927851409
20
249.258214528829
30
0.0
40
4.0
41
0.75
50
0.0
51
0.0
7
Standard
11
3563.50927851409
21
249.258214528829
31
0.0
210
0.0
220
0.0
230
1.0
71
0
72
0
100
AcDbText
73
0
0
TEXT
5
F1
330
1C
100
AcDbEntity
67
0
8
spdCmdManufTaoliaoGnDraw
62
7
6
ByLayer
370
-1
48
1.0
60
0
100
AcDbText
1
1
10
3631.94827851409
20
249.258214528829
30
0.0
40
4.0
41
0.75
50
0.0
51
0.0
7
Standard
11
3631.94827851409
21
249.258214528829
31
0.0
210
0.0
220
0.0
230
1.0
71
0
72
0
100
AcDbText
73
0
0
TEXT
5
F2
330
1C
100
AcDbEntity
67
0
8
spdCmdManufTaoliaoGnDraw
62
7
6
ByLayer
370
-1
48
1.0
60
0
100
AcDbText
1
AH32
10
3681.83827851409
20
249.258214528829
30
0.0
40
4.0
41
0.75
50
0.0
51
0.0
7
Standard
11
3681.83827851409
21
249.258214528829
31
0.0
210
0.0
220
0.0
230
1.0
71
0
72
0
100
AcDbText
73
0
0
TEXT
5
F3
330
1C
100
AcDbEntity
67
0
8
spdCmdManufTaoliaoGnDraw
62
7
6
ByLayer
370
-1
48
1.0
60
0
100
AcDbText
1
27.41
10
3568.80127851409
20
257.258214528829
30
0.0
40
4.0
41
0.75
50
0.0
51
0.0
7
Standard
11
3568.80127851409
21
257.258214528829
31
0.0
210
0.0
220
0.0
230
1.0
71
0
72
0
100
AcDbText
73
0
0
TEXT
5
F4
330
1C
100
AcDbEntity
67
0
8
spdCmdManufTaoliaoGnDraw
62
7
6
ByLayer
370
-1
48
1.0
60
0
100
AcDbText
1
56.52
10
3624.80127851409
20
257.258214528829
30
0.0
40
4.0
41
0.75
50
0.0
51
0.0
7
Standard
11
3624.80127851409
21
257.258214528829
31
0.0
210
0.0
220
0.0
230
1.0
71
0
72
0
100
AcDbText
73
0
0
TEXT
5
F5
330
1C
100
AcDbEntity
67
0
8
spdCmdManufTaoliaoGnDraw
62
7
6
ByLayer
370
-1
48
1.0
60
0
100
AcDbText
1
404PS3
10
3735.76527851409
20
265.258214528829
30
0.0
40
4.0
41
0.75
50
0.0
51
0.0
7
Standard
11
3735.76527851409
21
265.258214528829
31
0.0
210
0.0
220
0.0
230
1.0
71
0
72
0
100
AcDbText
73
0
0
TEXT
5
F6
330
1C
100
AcDbEntity
67
0
8
spdCmdManufTaoliaoGnDraw
62
7
6
ByLayer
370
-1
48
1.0
60
0
100
AcDbText
1
96.9%
10
3680.80127851409
20
265.258214528829
30
0.0
40
4.0
41
0.75
50
0.0
51
0.0
7
Standard
11
3680.80127851409
21
265.258214528829
31
0.0
210
0.0
220
0.0
230
1.0
71
0
72
0
100
AcDbText
73
0
0
TEXT
5
F7
330
1C
100
AcDbEntity
67
0
8
spdCmdManufTaoliaoGnDraw
62
7
6
ByLayer
370
-1
48
1.0
60
0
100
AcDbText
1
M
10
3740.94827851409
20
257.258214528829
30
0.0
40
4.0
41
0.75
50
0.0
51
0.0
7
Standard
11
3740.94827851409
21
257.258214528829
31
0.0
210
0.0
220
0.0
230
1.0
71
0
72
0
100
AcDbText
73
0
0
TEXT
5
F8
330
1C
100
AcDbEntity
67
0
8
spdCmdManufTaoliaoGnDraw
62
7
6
ByLayer
370
-1
48
1.0
60
0
100
AcDbText
1
 P
10
3739.91127851409
20
249.258214528829
30
0.0
40
4.0
41
0.75
50
0.0
51
0.0
7
Standard
11
3739.91127851409
21
249.258214528829
31
0.0
210
0.0
220
0.0
230
1.0
71
0
72
0
100
AcDbText
73
0
0
TEXT
5
F9
330
1C
100
AcDbEntity
67
0
8
spdCmdManufTaoliaoGnDraw
62
7
6
ByLayer
370
-1
48
1.0
60
0
100
AcDbText
1
2024-9-6
10
3623.69227851409
20
265.258214528829
30
0.0
40
4.0
41
0.75
50
0.0
51
0.0
7
Standard
11
3623.69227851409
21
265.258214528829
31
0.0
210
0.0
220
0.0
230
1.0
71
0
72
0
100
AcDbText
73
0
0
TEXT
5
FA
330
1C
100
AcDbEntity
67
0
8
spdCmdManufTaoliaoGnDraw
62
7
6
ByLayer
370
-1
48
1.0
60
0
100
AcDbText
1
404PS
10
3680.80127851409
20
273.258214528829
30
0.0
40
4.0
41
0.75
50
0.0
51
0.0
7
Standard
11
3680.80127851409
21
273.258214528829
31
0.0
210
0.0
220
0.0
230
1.0
71
0
72
0
100
AcDbText
73
0
0
TEXT
5
FB
330
1C
100
AcDbEntity
67
0
8
spdCmdManufTaoliaoGnDraw
62
7
6
ByLayer
370
-1
48
1.0
60
0
100
AcDbText
1
01
10
3683.91127851409
20
257.258214528829
30
0.0
40
4.0
41
0.75
50
0.0
51
0.0
7
Standard
11
3683.91127851409
21
257.258214528829
31
0.0
210
0.0
220
0.0
230
1.0
71
0
72
0
100
AcDbText
73
0
0
TEXT
5
FC
330
1C
100
AcDbEntity
67
0
8
spdCmdManufTaoliaoGnDraw
62
7
6
ByLayer
370
-1
48
1.0
60
0
100
AcDbText
1
3
10
3740.94827851409
20
273.258214528829
30
0.0
40
4.0
41
0.75
50
0.0
51
0.0
7
Standard
11
3740.94827851409
21
273.258214528829
31
0.0
210
0.0
220
0.0
230
1.0
71
0
72
0
100
AcDbText
73
0
0
TEXT
5
FD
330
1C
100
AcDbEntity
67
0
8
spdCmdManufTaoliaoGnDraw
62
7
6
ByLayer
370
-1
48
1.0
60
0
100
AcDbText
1
1
10
3387.42957851409
20
28.7582145288288
30
0.0
40
3.0
41
0.75
50
0.0
51
0.0
7
Standard
11
3387.42957851409
21
28.7582145288288
31
0.0
210
0.0
220
0.0
230
1.0
71
0
72
0
100
AcDbText
73
0
0
TEXT
5
FE
330
1C
100
AcDbEntity
67
0
8
spdCmdManufTaoliaoGnDraw
62
7
6
ByLayer
370
-1
48
1.0
60
0
100
AcDbText
1
404S/ZP3A-K2
10
3390.98427851409
20
28.7582145288288
30
0.0
40
3.0
41
0.75
50
0.0
51
0.0
7
Standard
11
3390.98427851409
21
28.7582145288288
31
0.0
210
0.0
220
0.0
230
1.0
71
0
72
0
100
AcDbText
73
0
0
TEXT
5
FF
330
1C
100
AcDbEntity
67
0
8
spdCmdManufTaoliaoGnDraw
62
7
6
ByLayer
370
-1
48
1.0
60
0
100
AcDbText
1
11955*1751
10
3419.43677851409
20
28.7582145288288
30
0.0
40
3.0
41
0.75
50
0.0
51
0.0
7
Standard
11
3419.43677851409
21
28.7582145288288
31
0.0
210
0.0
220
0.0
230
1.0
71
0
72
0
100
AcDbText
73
0
0
TEXT
5
100
330
1C
100
AcDbEntity
67
0
8
spdCmdManufTaoliaoGnDraw
62
7
6
ByLayer
370
-1
48
1.0
60
0
100
AcDbText
1
27.41
10
3441.21057851409
20
28.7582145288288
30
0.0
40
3.0
41
0.75
50
0.0
51
0.0
7
Standard
11
3441.21057851409
21
28.7582145288288
31
0.0
210
0.0
220
0.0
230
1.0
71
0
72
0
100
AcDbText
73
0
0
TEXT
5
101
330
1C
100
AcDbEntity
67
0
8
spdCmdManufTaoliaoGnDraw
62
7
6
ByLayer
370
-1
48
1.0
60
0
100
AcDbText
1
W/Z
10
3450.98427851409
20
28.7582145288288
30
0.0
40
3.0
41
0.75
50
0.0
51
0.0
7
Standard
11
3450.98427851409
21
28.7582145288288
31
0.0
210
0.0
220
0.0
230
1.0
71
0
72
0
100
AcDbText
73
0
0
TEXT
5
102
330
1C
100
AcDbEntity
67
0
8
spdCmdManufTaoliaoGnDraw
62
7
6
ByLayer
370
-1
48
1.0
60
0
100
AcDbText
1
P
10
3466.98427851409
20
28.7582145288288
30
0.0
40
3.0
41
0.75
50
0.0
51
0.0
7
Standard
11
3466.98427851409
21
28.7582145288288
31
0.0
210
0.0
220
0.0
230
1.0
71
0
72
0
100
AcDbText
73
0
0
TEXT
5
103
330
1C
100
AcDbEntity
67
0
8
spdCmdManufTaoliaoGnDraw
62
1
6
ByLayer
370
-1
48
1.0
60
0
100
AcDbText
1
\U+53CD20\U+5EA6
10
3730.38973040913
20
212.961637269354
30
0.0
40
2.0
41
0.75
50
89.8627
51
0.0
7
Standard
11
3730.38973040913
21
212.961637269354
31
0.0
210
0.0
220
0.0
230
1.0
71
0
72
0
100
AcDbText
73
0
0
TEXT
5
104
330
1C
100
AcDbEntity
67
0
8
spdCmdManufTaoliaoGnDraw
62
1
6
ByLayer
370
-1
48
1.0
60
0
100
AcDbText
1
\U+53CD20\U+5EA6
10
3556.72596947619
20
191.473896744572
30
0.0
40
2.0
41
0.75
50
359.909
51
0.0
7
Standard
11
3556.72596947619
21
191.473896744572
31
0.0
210
0.0
220
0.0
230
1.0
71
0
72
0
100
AcDbText
73
0
0
TEXT
5
105
330
1C
100
AcDbEntity
67
0
8
spdCmdManufTaoliaoGnDraw
62
1
6
ByLayer
370
-1
48
1.0
60
0
100
AcDbText
1
\U+53CD20\U+5EA6
10
3391.51677851409
20
213.015214528829
30
0.0
40
2.0
41
0.75
50
89.9544
51
0.0
7
Standard
11
3391.51677851409
21
213.015214528829
31
0.0
210
0.0
220
0.0
230
1.0
71
0
72
0
100
AcDbText
73
0
0
TEXT
5
106
330
1C
100
AcDbEntity
67
0
8
spdCmdManufTaoliaoGnDraw
62
1
6
ByLayer
370
-1
48
1.0
60
0
100
AcDbText
1
11955*1751
10
3554.74029309135
20
217.236479834951
30
0.0
40
2.0
41
0.75
50
0.0
51
0.0
7
Standard
11
3554.74029309135
21
217.236479834951
31
0.0
210
0.0
220
0.0
230
1.0
71
0
72
0
100
AcDbText
73
0
0
TEXT
5
107
330
1C
100
AcDbEntity
67
0
8
spdCmdManufTaoliaoGnDraw
62
1
6
ByLayer
370
-1
48
1.0
60
0
100
AcDbText
1
\U+8237
10
3558.96270125461
20
194.657421525913
30
0.0
40
2.0
41
0.75
50
0.0
51
0.0
7
Standard
11
3558.96270125461
21
194.657421525913
31
0.0
210
0.0
220
0.0
230
1.0
71
0
72
0
100
AcDbText
73
0
0
TEXT
5
108
330
1C
100
AcDbEntity
67
0
8
spdCmdManufTaoliaoGnDraw
62
1
6
ByLayer
370
-1
48
1.0
60
0
100
AcDbText
1
\U+824F
10
3392.51757851409
20
216.125214528829
30
0.0
40
2.0
41
0.75
50
0.0
51
0.0
7
Standard
11
3392.51757851409
21
216.125214528829
31
0.0
210
0.0
220
0.0
230
1.0
71
0
72
0
100
AcDbText
73
0
0
TEXT
5
109
330
1C
100
AcDbEntity
67
0
8
spdCmdManufTaoliaoGnDraw
62
1
6
ByLayer
370
-1
48
1.0
60
0
100
AcDbText
1
+0.5
10
3612.77084994266
20
238.806890913669
30
0.0
40
2.0
41
0.75
50
0.0
51
0.0
7
Standard
11
3612.77084994266
21
238.806890913669
31
0.0
210
0.0
220
0.0
230
1.0
71
0
72
0
100
AcDbText
73
0
0
TEXT
5
10A
330
1C
100
AcDbEntity
67
0
8
spdCmdManufTaoliaoGnDraw
62
7
6
ByLayer
370
-1
48
1.0
60
0
100
AcDbText
1
1S@\U+7FFB\U+8EAB\U+53CD\U+5212\U+7EBF
10
3553.31727851409
20
214.625214528829
30
0.0
40
2.0
41
0.75
50
0.0
51
0.0
7
Standard
11
3553.31727851409
21
214.625214528829
31
0.0
210
0.0
220
0.0
230
1.0
71
0
72
0
100
AcDbText
73
0
0
TEXT
5
10B
330
1C
100
AcDbEntity
67
0
8
spdCmdManufTaoliaoGnDraw
62
7
6
ByLayer
370
-1
48
1.0
60
0
100
AcDbText
1
\U+5185\U+5B54\U+3001\U+5207\U+53E3\U+3001R\U+89D2\U+3001\U+81EA\U+7531\U+8FB9\U+6253\U+78E8R\U+22652
10
3664.21027851409
20
182.329214528829
30
0.0
40
4.0
41
0.75
50
0.0
51
0.0
7
Standard
11
3664.21027851409
21
182.329214528829
31
0.0
210
0.0
220
0.0
230
1.0
71
0
72
0
100
AcDbText
73
0
0
TEXT
5
10C
330
1C
100
AcDbEntity
67
0
8
spdCmdManufTaoliaoGnDraw
62
7
6
ByLayer
370
-1
48
1.0
60
0
100
AcDbText
1
\U+975E\U+7ED3\U+6784\U+9762\U+5411\U+4E0A
10
3553.50051251133
20
211.484514109924
30
0.0
40
2.0
41
0.75
50
0.0
51
0.0
7
Standard
11
3553.50051251133
21
211.484514109924
31
0.0
210
0.0
220
0.0
230
1.0
71
0
72
0
100
AcDbText
73
0
1001
ZWMCAD_GENSCA_13_
1070
1
1040
1.0
1001
ZWMCAD_GENSTANDARDFRAME_13_
1070
410
1000
GB
1070
411
1000
ZwmFrameMain_
0
VIEWPORT
5
113
330
10F
100
AcDbEntity
67
1
8
0
62
256
6
ByLayer
370
-1
48
1.0
60
0
100
AcDbViewport
10
0.0
20
0.0
30
0.0
40
297.0
41
210.0
68
1
69
1
12
50.0
22
100.0
13
0.0
23
0.0
14
10.0
24
10.0
15
10.0
25
10.0
16
0.0
26
0.0
36
1.0
17
0.0
27
0.0
37
0.0
42
50.0
43
0.0
44
0.0
45
250.0
50
0.0
51
0.0
72
1000
90
819232
110
0.0
120
0.0
130
0.0
111
1.0
121
0.0
131
0.0
112
0.0
122
1.0
132
0.0
0
ENDSEC
0
SECTION
2
OBJECTS
0
DICTIONARY
5
119
330
0
100
AcDbDictionary
280
1
281
1
3
ACAD_GROUP
350
12
3
ACAD_LAYOUT
350
112
3
ACAD_DGNDEFINITIONS
350
F
3
ACAD_DWFDEFINITIONS
350
10
3
ACAD_PDFDEFINITIONS
350
11
3
ACAD_MLINESTYLE
350
B
3
ACAD_IMAGE_DICT
350
E
3
ACAD_IMAGE_VARS
350
21
0
DICTIONARY
5
12
330
119
100
AcDbDictionary
280
1
281
1
0
DICTIONARY
5
112
330
119
100
AcDbDictionary
280
1
281
1
3
Model
350
20
3
Layout1
350
114
0
DICTIONARY
5
F
330
119
100
AcDbDictionary
280
1
281
1
0
DICTIONARY
5
10
330
119
100
AcDbDictionary
280
1
281
1
0
DICTIONARY
5
11
330
119
100
AcDbDictionary
280
1
281
1
0
DICTIONARY
5
B
330
119
100
AcDbDictionary
280
1
281
1
3
Standard
350
1B
0
DICTIONARY
5
E
330
119
100
AcDbDictionary
280
1
281
1
0
DICTIONARY
5
6
330
5
100
AcDbDictionary
280
1
281
1
3
ACAD_LAYERSTATES
360
11A
0
DICTIONARY
5
11A
330
6
100
AcDbDictionary
280
1
281
1
0
LAYOUT
5
20
330
112
100
AcDbPlotSettings
1

2
none_device
4
ISO_A4_(210.00_x_297.00_MM)
6

40
7.5
41
20.0
42
7.5
43
20.0
44
210.0
45
297.0
46
0.0
47
0.0
48
0.0
49
0.0
140
0.0
141
0.0
142
1.0
143
1.0
70
11952
72
1
73
1
74
1
7

75
0
76
0
77
2
78
300
147
1.0
148
0.0
149
0.0
100
AcDbLayout
1
Model
71
0
10
-20.0
20
-7.5
11
277.0
21
202.5
12
0.0
22
0.0
32
0.0
14
25.7
24
19.5
34
0.0
15
231.3
25
175.5
35
0.0
146
0.0
13
0.0
23
0.0
33
0.0
16
1.0
26
0.0
36
0.0
17
0.0
27
1.0
37
0.0
76
0
330
1C
0
LAYOUT
5
114
330
112
100
AcDbPlotSettings
1

2
none_device
4
ISO_A4_(210.00_x_297.00_MM)
6

40
7.5
41
20.0
42
7.5
43
20.0
44
210.0
45
297.0
46
0.0
47
0.0
48
0.0
49
0.0
140
0.0
141
0.0
142
1.0
143
1.0
70
688
72
1
73
1
74
1
7

75
0
76
0
77
2
78
300
147
1.0
148
0.0
149
0.0
100
AcDbLayout
1
Layout1
71
1
10
-20.0
20
-7.5
11
277.0
21
202.5
12
0.0
22
0.0
32
0.0
14
25.7
24
19.5
34
0.0
15
231.3
25
175.5
35
0.0
146
0.0
13
0.0
23
0.0
33
0.0
16
1.0
26
0.0
36
0.0
17
0.0
27
1.0
37
0.0
76
0
330
10F
0
MLINESTYLE
5
1B
330
B
100
AcDbMlineStyle
2
Standard
70
0
3

62
256
51
90.0
52
90.0
71
2
49
0.5
62
256
6
ByLayer
49
-0.5
62
256
6
ByLayer
0
RASTERVARIABLES
5
21
330
E
100
AcDbRasterVariables
90
0
70
1
71
1
72
0
0
ENDSEC
0
EOF
